<?xml version="1.0" encoding="UTF-8" standalone="no"?>
<!-- Created with Inkscape (http://www.inkscape.org/) -->

<svg
   xmlns:dc="http://purl.org/dc/elements/1.1/"
   xmlns:cc="http://creativecommons.org/ns#"
   xmlns:rdf="http://www.w3.org/1999/02/22-rdf-syntax-ns#"
   xmlns:svg="http://www.w3.org/2000/svg"
   xmlns="http://www.w3.org/2000/svg"
   xmlns:sodipodi="http://sodipodi.sourceforge.net/DTD/sodipodi-0.dtd"
   xmlns:inkscape="http://www.inkscape.org/namespaces/inkscape"
   id="svg2"
   version="1.1"
   inkscape:version="0.91 r13725"
   xml:space="preserve"
   width="602.36212"
   height="245.45712"
   viewBox="0 0 602.36212 245.45712"
   sodipodi:docname="fig_3.svg"><metadata
     id="metadata8"><rdf:RDF><cc:Work
         rdf:about=""><dc:format>image/svg+xml</dc:format><dc:type
           rdf:resource="http://purl.org/dc/dcmitype/StillImage" /><dc:title></dc:title></cc:Work></rdf:RDF></metadata><defs
     id="defs6"><clipPath
       clipPathUnits="userSpaceOnUse"
       id="clipPath16"><path
         d="m 21,21 581.103,0 0,722.835 L 21,743.835 21,21 Z"
         id="path18"
         inkscape:connector-curvature="0" /></clipPath><clipPath
       clipPathUnits="userSpaceOnUse"
       id="clipPath36"><path
         d="m 63.52,695.646 141.732,0 0,2.835 -141.732,0 0,-2.835 z"
         id="path38"
         inkscape:connector-curvature="0" /></clipPath><linearGradient
       x1="0"
       y1="0"
       x2="1"
       y2="0"
       gradientUnits="userSpaceOnUse"
       gradientTransform="matrix(141.73228,0,0,-141.73228,63.519653,695.64572)"
       spreadMethod="pad"
       id="linearGradient44"><stop
         style="stop-opacity:1;stop-color:#231f20"
         offset="0"
         id="stop46" /><stop
         style="stop-opacity:1;stop-color:#ffffff"
         offset="1"
         id="stop48" /></linearGradient><clipPath
       clipPathUnits="userSpaceOnUse"
       id="clipPath56"><path
         d="m 219.425,695.646 325.984,0 0,2.835 -325.984,0 0,-2.835 z"
         id="path58"
         inkscape:connector-curvature="0" /></clipPath><linearGradient
       x1="0"
       y1="0"
       x2="1"
       y2="0"
       gradientUnits="userSpaceOnUse"
       gradientTransform="matrix(325.98425,0,0,-325.98425,219.42517,695.64572)"
       spreadMethod="pad"
       id="linearGradient64"><stop
         style="stop-opacity:1;stop-color:#231f20"
         offset="0"
         id="stop66" /><stop
         style="stop-opacity:1;stop-color:#ffffff"
         offset="1"
         id="stop68" /></linearGradient><clipPath
       clipPathUnits="userSpaceOnUse"
       id="clipPath76"><path
         d="m 21,21 581.102,0 0,722.835 L 21,743.835 21,21 Z"
         id="path78"
         inkscape:connector-curvature="0" /></clipPath><clipPath
       clipPathUnits="userSpaceOnUse"
       id="clipPath648"><path
         d="m 21,21 581.102,0 0,722.835 L 21,743.835 21,21 Z"
         id="path650"
         inkscape:connector-curvature="0" /></clipPath><clipPath
       clipPathUnits="userSpaceOnUse"
       id="clipPath740"><path
         d="m 0,0 623.102,0 0,764.835 L 0,764.835 0,0 Z"
         id="path742"
         inkscape:connector-curvature="0" /></clipPath></defs><sodipodi:namedview
     pagecolor="#ffffff"
     bordercolor="#666666"
     borderopacity="1"
     objecttolerance="10"
     gridtolerance="10"
     guidetolerance="10"
     inkscape:pageopacity="0"
     inkscape:pageshadow="2"
     inkscape:window-width="1366"
     inkscape:window-height="711"
     id="namedview4"
     showgrid="false"
     fit-margin-top="0"
     fit-margin-left="0"
     fit-margin-right="0"
     fit-margin-bottom="0"
     inkscape:zoom="0.51808708"
     inkscape:cx="423.7739"
     inkscape:cy="188.19177"
     inkscape:window-x="0"
     inkscape:window-y="27"
     inkscape:window-maximized="1"
     inkscape:current-layer="g646" /><g
     id="g10"
     inkscape:groupmode="layer"
     inkscape:label="Kagan_Cap1"
     transform="matrix(1.25,0,0,-1.25,-79.399625,325)"><path
       d="m 63.77,259.75 481.39,0 0,-18.251 -481.39,0 0,18.251 z"
       style="fill:#7b7979;fill-opacity:1;fill-rule:nonzero;stroke:none"
       id="path226"
       inkscape:connector-curvature="0" /><path
       d="m 63.77,241.499 240.695,0 0,-18.621 -240.695,0 0,18.621 z m 240.695,0 120.347,0 0,-37.241 -120.347,0 0,37.241 z m 120.347,0 120.347,0 0,-37.241 -120.347,0 0,37.241 z m -361.042,-18.62 120.347,0 0,-18.621 -120.347,0 0,18.621 z m 120.347,0 120.347,0 0,-18.621 -120.347,0 0,18.621 z"
       style="fill:#c8c7c7;fill-opacity:1;fill-rule:nonzero;stroke:none"
       id="path228"
       inkscape:connector-curvature="0" /><path
       d="m 63.77,204.258 120.347,0 0,-12.761 -120.347,0 0,12.761 z m 120.347,0 120.347,0 0,-12.761 -120.347,0 0,12.761 z m 120.348,0 120.347,0 0,-25.522 -120.347,0 0,25.522 z m 120.347,0 120.347,0 0,-89.329 -120.347,0 0,89.329 z M 63.77,191.497 l 120.347,0 0,-12.761 -120.347,0 0,12.761 z m 120.347,0 120.347,0 0,-12.761 -120.347,0 0,12.761 z M 63.77,178.735 l 120.347,0 0,-12.761 -120.347,0 0,12.761 z m 120.347,0 120.347,0 0,-12.761 -120.347,0 0,12.761 z m 120.348,0 120.347,0 0,-25.522 -120.347,0 0,25.522 z M 63.77,165.974 l 120.347,0 0,-12.761 -120.347,0 0,12.761 z m 120.347,0 120.347,0 0,-12.761 -120.347,0 0,12.761 z M 63.77,153.213 l 120.347,0 0,-12.761 -120.347,0 0,12.761 z m 120.347,0 120.347,0 0,-38.284 -120.347,0 0,38.284 z m 120.348,0 120.347,0 0,-38.284 -120.347,0 0,38.284 z M 63.77,140.452 l 120.347,0 0,-12.761 -120.347,0 0,12.761 z m 0,-12.762 120.347,0 0,-12.761 -120.347,0 0,12.761 z m 0,-12.761 120.347,0 0,-12.761 -120.347,0 0,12.761 z m 120.347,0 120.347,0 0,-51.045 -120.347,0 0,51.045 z m 120.348,0 120.347,0 0,-51.045 -120.347,0 0,51.045 z m 120.347,0 120.347,0 0,-51.045 -120.347,0 0,51.045 z M 63.77,102.168 l 120.347,0 0,-12.761 -120.347,0 0,12.761 z m 0,-12.761 120.347,0 0,-12.761 -120.347,0 0,12.761 z m 0,-12.761 120.347,0 0,-12.761 -120.347,0 0,12.761 z"
       style="fill:#e9e9e9;fill-opacity:1;fill-rule:nonzero;stroke:none"
       id="path230"
       inkscape:connector-curvature="0" /><g
       id="g232"
       transform="translate(63.5197,259.75)"><path
         d="M 0,0 120.597,0"
         style="fill:none;stroke:#231f20;stroke-width:0.5;stroke-linecap:butt;stroke-linejoin:miter;stroke-miterlimit:10;stroke-dasharray:none;stroke-opacity:1"
         id="path234"
         inkscape:connector-curvature="0" /></g><g
       id="g236"
       transform="translate(63.7697,241.7494)"><path
         d="M 0,0 0,17.751"
         style="fill:none;stroke:#231f20;stroke-width:0.5;stroke-linecap:butt;stroke-linejoin:miter;stroke-miterlimit:10;stroke-dasharray:none;stroke-opacity:1"
         id="path238"
         inkscape:connector-curvature="0" /></g><g
       id="g240"
       transform="translate(184.1171,259.75)"><path
         d="M 0,0 120.347,0"
         style="fill:none;stroke:#231f20;stroke-width:0.5;stroke-linecap:butt;stroke-linejoin:miter;stroke-miterlimit:10;stroke-dasharray:none;stroke-opacity:1"
         id="path242"
         inkscape:connector-curvature="0" /></g><g
       id="g244"
       transform="translate(304.4646,259.75)"><path
         d="M 0,0 120.347,0"
         style="fill:none;stroke:#231f20;stroke-width:0.5;stroke-linecap:butt;stroke-linejoin:miter;stroke-miterlimit:10;stroke-dasharray:none;stroke-opacity:1"
         id="path246"
         inkscape:connector-curvature="0" /></g><g
       id="g248"
       transform="translate(424.812,259.75)"><path
         d="M 0,0 120.597,0"
         style="fill:none;stroke:#231f20;stroke-width:0.5;stroke-linecap:butt;stroke-linejoin:miter;stroke-miterlimit:10;stroke-dasharray:none;stroke-opacity:1"
         id="path250"
         inkscape:connector-curvature="0" /></g><g
       id="g252"
       transform="translate(63.5197,241.4994)"><path
         d="M 0,0 120.597,0"
         style="fill:none;stroke:#231f20;stroke-width:0.5;stroke-linecap:butt;stroke-linejoin:miter;stroke-miterlimit:10;stroke-dasharray:none;stroke-opacity:1"
         id="path254"
         inkscape:connector-curvature="0" /></g><g
       id="g256"
       transform="translate(63.7697,223.1287)"><path
         d="M 0,0 0,18.121"
         style="fill:none;stroke:#231f20;stroke-width:0.5;stroke-linecap:butt;stroke-linejoin:miter;stroke-miterlimit:10;stroke-dasharray:none;stroke-opacity:1"
         id="path258"
         inkscape:connector-curvature="0" /></g><g
       id="g260"
       transform="translate(184.1171,241.4994)"><path
         d="M 0,0 120.347,0"
         style="fill:none;stroke:#231f20;stroke-width:0.5;stroke-linecap:butt;stroke-linejoin:miter;stroke-miterlimit:10;stroke-dasharray:none;stroke-opacity:1"
         id="path262"
         inkscape:connector-curvature="0" /></g><g
       id="g264"
       transform="translate(545.1594,241.7494)"><path
         d="M 0,0 0,17.751"
         style="fill:none;stroke:#231f20;stroke-width:0.5;stroke-linecap:butt;stroke-linejoin:miter;stroke-miterlimit:10;stroke-dasharray:none;stroke-opacity:1"
         id="path266"
         inkscape:connector-curvature="0" /></g><g
       id="g268"
       transform="translate(304.4646,241.4994)"><path
         d="M 0,0 120.347,0"
         style="fill:none;stroke:#231f20;stroke-width:0.5;stroke-linecap:butt;stroke-linejoin:miter;stroke-miterlimit:10;stroke-dasharray:none;stroke-opacity:1"
         id="path270"
         inkscape:connector-curvature="0" /></g><g
       id="g272"
       transform="translate(304.4646,223.1287)"><path
         d="M 0,0 0,18.121"
         style="fill:none;stroke:#231f20;stroke-width:0.5;stroke-linecap:butt;stroke-linejoin:miter;stroke-miterlimit:10;stroke-dasharray:none;stroke-opacity:1"
         id="path274"
         inkscape:connector-curvature="0" /></g><g
       id="g276"
       transform="translate(424.812,241.4994)"><path
         d="M 0,0 120.597,0"
         style="fill:none;stroke:#231f20;stroke-width:0.5;stroke-linecap:butt;stroke-linejoin:miter;stroke-miterlimit:10;stroke-dasharray:none;stroke-opacity:1"
         id="path278"
         inkscape:connector-curvature="0" /></g><g
       id="g280"
       transform="translate(424.812,222.8787)"><path
         d="M 0,0 0,18.371"
         style="fill:none;stroke:#231f20;stroke-width:0.5;stroke-linecap:butt;stroke-linejoin:miter;stroke-miterlimit:10;stroke-dasharray:none;stroke-opacity:1"
         id="path282"
         inkscape:connector-curvature="0" /></g><g
       id="g284"
       transform="translate(545.1594,222.8787)"><path
         d="M 0,0 0,18.371"
         style="fill:none;stroke:#231f20;stroke-width:0.5;stroke-linecap:butt;stroke-linejoin:miter;stroke-miterlimit:10;stroke-dasharray:none;stroke-opacity:1"
         id="path286"
         inkscape:connector-curvature="0" /></g><g
       id="g288"
       transform="translate(424.812,204.5079)"><path
         d="M 0,0 0,18.371"
         style="fill:none;stroke:#231f20;stroke-width:0.5;stroke-linecap:butt;stroke-linejoin:miter;stroke-miterlimit:10;stroke-dasharray:none;stroke-opacity:1"
         id="path290"
         inkscape:connector-curvature="0" /></g><g
       id="g292"
       transform="translate(545.1594,204.5079)"><path
         d="M 0,0 0,18.371"
         style="fill:none;stroke:#231f20;stroke-width:0.5;stroke-linecap:butt;stroke-linejoin:miter;stroke-miterlimit:10;stroke-dasharray:none;stroke-opacity:1"
         id="path294"
         inkscape:connector-curvature="0" /></g><g
       id="g296"
       transform="translate(63.5197,222.8787)"><path
         d="M 0,0 120.597,0"
         style="fill:none;stroke:#231f20;stroke-width:0.5;stroke-linecap:butt;stroke-linejoin:miter;stroke-miterlimit:10;stroke-dasharray:none;stroke-opacity:1"
         id="path298"
         inkscape:connector-curvature="0" /></g><g
       id="g300"
       transform="translate(63.7697,204.5079)"><path
         d="M 0,0 0,18.121"
         style="fill:none;stroke:#231f20;stroke-width:0.5;stroke-linecap:butt;stroke-linejoin:miter;stroke-miterlimit:10;stroke-dasharray:none;stroke-opacity:1"
         id="path302"
         inkscape:connector-curvature="0" /></g><g
       id="g304"
       transform="translate(184.1171,222.8787)"><path
         d="M 0,0 120.597,0"
         style="fill:none;stroke:#231f20;stroke-width:0.5;stroke-linecap:butt;stroke-linejoin:miter;stroke-miterlimit:10;stroke-dasharray:none;stroke-opacity:1"
         id="path306"
         inkscape:connector-curvature="0" /></g><g
       id="g308"
       transform="translate(184.1171,204.5079)"><path
         d="M 0,0 0,18.121"
         style="fill:none;stroke:#231f20;stroke-width:0.5;stroke-linecap:butt;stroke-linejoin:miter;stroke-miterlimit:10;stroke-dasharray:none;stroke-opacity:1"
         id="path310"
         inkscape:connector-curvature="0" /></g><g
       id="g312"
       transform="translate(304.4646,204.5079)"><path
         d="M 0,0 0,18.121"
         style="fill:none;stroke:#231f20;stroke-width:0.5;stroke-linecap:butt;stroke-linejoin:miter;stroke-miterlimit:10;stroke-dasharray:none;stroke-opacity:1"
         id="path314"
         inkscape:connector-curvature="0" /></g><g
       id="g316"
       transform="translate(63.5197,204.2579)"><path
         d="M 0,0 120.597,0"
         style="fill:none;stroke:#231f20;stroke-width:0.5;stroke-linecap:butt;stroke-linejoin:miter;stroke-miterlimit:10;stroke-dasharray:none;stroke-opacity:1"
         id="path318"
         inkscape:connector-curvature="0" /></g><g
       id="g320"
       transform="translate(63.7697,191.7467)"><path
         d="M 0,0 0,12.261"
         style="fill:none;stroke:#231f20;stroke-width:0.5;stroke-linecap:butt;stroke-linejoin:miter;stroke-miterlimit:10;stroke-dasharray:none;stroke-opacity:1"
         id="path322"
         inkscape:connector-curvature="0" /></g><g
       id="g324"
       transform="translate(184.1171,204.2579)"><path
         d="M 0,0 120.347,0"
         style="fill:none;stroke:#231f20;stroke-width:0.5;stroke-linecap:butt;stroke-linejoin:miter;stroke-miterlimit:10;stroke-dasharray:none;stroke-opacity:1"
         id="path326"
         inkscape:connector-curvature="0" /></g><g
       id="g328"
       transform="translate(184.1171,191.7467)"><path
         d="M 0,0 0,12.261"
         style="fill:none;stroke:#231f20;stroke-width:0.5;stroke-linecap:butt;stroke-linejoin:miter;stroke-miterlimit:10;stroke-dasharray:none;stroke-opacity:1"
         id="path330"
         inkscape:connector-curvature="0" /></g><g
       id="g332"
       transform="translate(304.4646,204.2579)"><path
         d="M 0,0 120.347,0"
         style="fill:none;stroke:#231f20;stroke-width:0.5;stroke-linecap:butt;stroke-linejoin:miter;stroke-miterlimit:10;stroke-dasharray:none;stroke-opacity:1"
         id="path334"
         inkscape:connector-curvature="0" /></g><g
       id="g336"
       transform="translate(304.4646,191.7467)"><path
         d="M 0,0 0,12.261"
         style="fill:none;stroke:#231f20;stroke-width:0.5;stroke-linecap:butt;stroke-linejoin:miter;stroke-miterlimit:10;stroke-dasharray:none;stroke-opacity:1"
         id="path338"
         inkscape:connector-curvature="0" /></g><g
       id="g340"
       transform="translate(424.812,204.2579)"><path
         d="M 0,0 120.597,0"
         style="fill:none;stroke:#231f20;stroke-width:0.5;stroke-linecap:butt;stroke-linejoin:miter;stroke-miterlimit:10;stroke-dasharray:none;stroke-opacity:1"
         id="path342"
         inkscape:connector-curvature="0" /></g><g
       id="g344"
       transform="translate(424.812,191.4967)"><path
         d="M 0,0 0,12.511"
         style="fill:none;stroke:#231f20;stroke-width:0.5;stroke-linecap:butt;stroke-linejoin:miter;stroke-miterlimit:10;stroke-dasharray:none;stroke-opacity:1"
         id="path346"
         inkscape:connector-curvature="0" /></g><g
       id="g348"
       transform="translate(545.1594,191.4967)"><path
         d="M 0,0 0,12.511"
         style="fill:none;stroke:#231f20;stroke-width:0.5;stroke-linecap:butt;stroke-linejoin:miter;stroke-miterlimit:10;stroke-dasharray:none;stroke-opacity:1"
         id="path350"
         inkscape:connector-curvature="0" /></g><g
       id="g352"
       transform="translate(424.812,178.9854)"><path
         d="M 0,0 0,12.511"
         style="fill:none;stroke:#231f20;stroke-width:0.5;stroke-linecap:butt;stroke-linejoin:miter;stroke-miterlimit:10;stroke-dasharray:none;stroke-opacity:1"
         id="path354"
         inkscape:connector-curvature="0" /></g><g
       id="g356"
       transform="translate(545.1594,178.7354)"><path
         d="M 0,0 0,12.761"
         style="fill:none;stroke:#231f20;stroke-width:0.5;stroke-linecap:butt;stroke-linejoin:miter;stroke-miterlimit:10;stroke-dasharray:none;stroke-opacity:1"
         id="path358"
         inkscape:connector-curvature="0" /></g><g
       id="g360"
       transform="translate(545.1594,165.9742)"><path
         d="M 0,0 0,12.761"
         style="fill:none;stroke:#231f20;stroke-width:0.5;stroke-linecap:butt;stroke-linejoin:miter;stroke-miterlimit:10;stroke-dasharray:none;stroke-opacity:1"
         id="path362"
         inkscape:connector-curvature="0" /></g><g
       id="g364"
       transform="translate(545.1594,153.213)"><path
         d="M 0,0 0,12.761"
         style="fill:none;stroke:#231f20;stroke-width:0.5;stroke-linecap:butt;stroke-linejoin:miter;stroke-miterlimit:10;stroke-dasharray:none;stroke-opacity:1"
         id="path366"
         inkscape:connector-curvature="0" /></g><g
       id="g368"
       transform="translate(545.1594,140.4517)"><path
         d="M 0,0 0,12.761"
         style="fill:none;stroke:#231f20;stroke-width:0.5;stroke-linecap:butt;stroke-linejoin:miter;stroke-miterlimit:10;stroke-dasharray:none;stroke-opacity:1"
         id="path370"
         inkscape:connector-curvature="0" /></g><g
       id="g372"
       transform="translate(545.1594,127.6905)"><path
         d="M 0,0 0,12.761"
         style="fill:none;stroke:#231f20;stroke-width:0.5;stroke-linecap:butt;stroke-linejoin:miter;stroke-miterlimit:10;stroke-dasharray:none;stroke-opacity:1"
         id="path374"
         inkscape:connector-curvature="0" /></g><g
       id="g376"
       transform="translate(545.1594,115.1792)"><path
         d="M 0,0 0,12.511"
         style="fill:none;stroke:#231f20;stroke-width:0.5;stroke-linecap:butt;stroke-linejoin:miter;stroke-miterlimit:10;stroke-dasharray:none;stroke-opacity:1"
         id="path378"
         inkscape:connector-curvature="0" /></g><g
       id="g380"
       transform="translate(63.5197,191.4967)"><path
         d="M 0,0 120.597,0"
         style="fill:none;stroke:#231f20;stroke-width:0.5;stroke-linecap:butt;stroke-linejoin:miter;stroke-miterlimit:10;stroke-dasharray:none;stroke-opacity:1"
         id="path382"
         inkscape:connector-curvature="0" /></g><g
       id="g384"
       transform="translate(63.7697,178.9854)"><path
         d="M 0,0 0,12.261"
         style="fill:none;stroke:#231f20;stroke-width:0.5;stroke-linecap:butt;stroke-linejoin:miter;stroke-miterlimit:10;stroke-dasharray:none;stroke-opacity:1"
         id="path386"
         inkscape:connector-curvature="0" /></g><g
       id="g388"
       transform="translate(184.1171,191.4967)"><path
         d="M 0,0 120.597,0"
         style="fill:none;stroke:#231f20;stroke-width:0.5;stroke-linecap:butt;stroke-linejoin:miter;stroke-miterlimit:10;stroke-dasharray:none;stroke-opacity:1"
         id="path390"
         inkscape:connector-curvature="0" /></g><g
       id="g392"
       transform="translate(184.1171,178.9854)"><path
         d="M 0,0 0,12.261"
         style="fill:none;stroke:#231f20;stroke-width:0.5;stroke-linecap:butt;stroke-linejoin:miter;stroke-miterlimit:10;stroke-dasharray:none;stroke-opacity:1"
         id="path394"
         inkscape:connector-curvature="0" /></g><g
       id="g396"
       transform="translate(304.4646,178.9854)"><path
         d="M 0,0 0,12.261"
         style="fill:none;stroke:#231f20;stroke-width:0.5;stroke-linecap:butt;stroke-linejoin:miter;stroke-miterlimit:10;stroke-dasharray:none;stroke-opacity:1"
         id="path398"
         inkscape:connector-curvature="0" /></g><g
       id="g400"
       transform="translate(63.5197,178.7354)"><path
         d="M 0,0 120.597,0"
         style="fill:none;stroke:#231f20;stroke-width:0.5;stroke-linecap:butt;stroke-linejoin:miter;stroke-miterlimit:10;stroke-dasharray:none;stroke-opacity:1"
         id="path402"
         inkscape:connector-curvature="0" /></g><g
       id="g404"
       transform="translate(63.7697,166.2242)"><path
         d="M 0,0 0,12.261"
         style="fill:none;stroke:#231f20;stroke-width:0.5;stroke-linecap:butt;stroke-linejoin:miter;stroke-miterlimit:10;stroke-dasharray:none;stroke-opacity:1"
         id="path406"
         inkscape:connector-curvature="0" /></g><g
       id="g408"
       transform="translate(184.1171,178.7354)"><path
         d="M 0,0 120.347,0"
         style="fill:none;stroke:#231f20;stroke-width:0.5;stroke-linecap:butt;stroke-linejoin:miter;stroke-miterlimit:10;stroke-dasharray:none;stroke-opacity:1"
         id="path410"
         inkscape:connector-curvature="0" /></g><g
       id="g412"
       transform="translate(184.1171,166.2242)"><path
         d="M 0,0 0,12.261"
         style="fill:none;stroke:#231f20;stroke-width:0.5;stroke-linecap:butt;stroke-linejoin:miter;stroke-miterlimit:10;stroke-dasharray:none;stroke-opacity:1"
         id="path414"
         inkscape:connector-curvature="0" /></g><g
       id="g416"
       transform="translate(304.4646,178.7354)"><path
         d="M 0,0 120.597,0"
         style="fill:none;stroke:#231f20;stroke-width:0.5;stroke-linecap:butt;stroke-linejoin:miter;stroke-miterlimit:10;stroke-dasharray:none;stroke-opacity:1"
         id="path418"
         inkscape:connector-curvature="0" /></g><g
       id="g420"
       transform="translate(304.4646,166.2242)"><path
         d="M 0,0 0,12.261"
         style="fill:none;stroke:#231f20;stroke-width:0.5;stroke-linecap:butt;stroke-linejoin:miter;stroke-miterlimit:10;stroke-dasharray:none;stroke-opacity:1"
         id="path422"
         inkscape:connector-curvature="0" /></g><g
       id="g424"
       transform="translate(424.812,165.9742)"><path
         d="M 0,0 0,12.511"
         style="fill:none;stroke:#231f20;stroke-width:0.5;stroke-linecap:butt;stroke-linejoin:miter;stroke-miterlimit:10;stroke-dasharray:none;stroke-opacity:1"
         id="path426"
         inkscape:connector-curvature="0" /></g><g
       id="g428"
       transform="translate(424.812,153.463)"><path
         d="M 0,0 0,12.511"
         style="fill:none;stroke:#231f20;stroke-width:0.5;stroke-linecap:butt;stroke-linejoin:miter;stroke-miterlimit:10;stroke-dasharray:none;stroke-opacity:1"
         id="path430"
         inkscape:connector-curvature="0" /></g><g
       id="g432"
       transform="translate(63.5197,165.9742)"><path
         d="M 0,0 120.597,0"
         style="fill:none;stroke:#231f20;stroke-width:0.5;stroke-linecap:butt;stroke-linejoin:miter;stroke-miterlimit:10;stroke-dasharray:none;stroke-opacity:1"
         id="path434"
         inkscape:connector-curvature="0" /></g><g
       id="g436"
       transform="translate(63.7697,153.463)"><path
         d="M 0,0 0,12.261"
         style="fill:none;stroke:#231f20;stroke-width:0.5;stroke-linecap:butt;stroke-linejoin:miter;stroke-miterlimit:10;stroke-dasharray:none;stroke-opacity:1"
         id="path438"
         inkscape:connector-curvature="0" /></g><g
       id="g440"
       transform="translate(184.1171,165.9742)"><path
         d="M 0,0 120.597,0"
         style="fill:none;stroke:#231f20;stroke-width:0.5;stroke-linecap:butt;stroke-linejoin:miter;stroke-miterlimit:10;stroke-dasharray:none;stroke-opacity:1"
         id="path442"
         inkscape:connector-curvature="0" /></g><g
       id="g444"
       transform="translate(184.1171,153.463)"><path
         d="M 0,0 0,12.261"
         style="fill:none;stroke:#231f20;stroke-width:0.5;stroke-linecap:butt;stroke-linejoin:miter;stroke-miterlimit:10;stroke-dasharray:none;stroke-opacity:1"
         id="path446"
         inkscape:connector-curvature="0" /></g><g
       id="g448"
       transform="translate(304.4646,153.463)"><path
         d="M 0,0 0,12.261"
         style="fill:none;stroke:#231f20;stroke-width:0.5;stroke-linecap:butt;stroke-linejoin:miter;stroke-miterlimit:10;stroke-dasharray:none;stroke-opacity:1"
         id="path450"
         inkscape:connector-curvature="0" /></g><g
       id="g452"
       transform="translate(63.5197,153.213)"><path
         d="M 0,0 120.597,0"
         style="fill:none;stroke:#231f20;stroke-width:0.5;stroke-linecap:butt;stroke-linejoin:miter;stroke-miterlimit:10;stroke-dasharray:none;stroke-opacity:1"
         id="path454"
         inkscape:connector-curvature="0" /></g><g
       id="g456"
       transform="translate(63.7697,140.7017)"><path
         d="M 0,0 0,12.261"
         style="fill:none;stroke:#231f20;stroke-width:0.5;stroke-linecap:butt;stroke-linejoin:miter;stroke-miterlimit:10;stroke-dasharray:none;stroke-opacity:1"
         id="path458"
         inkscape:connector-curvature="0" /></g><g
       id="g460"
       transform="translate(184.1171,153.213)"><path
         d="M 0,0 120.347,0"
         style="fill:none;stroke:#231f20;stroke-width:0.5;stroke-linecap:butt;stroke-linejoin:miter;stroke-miterlimit:10;stroke-dasharray:none;stroke-opacity:1"
         id="path462"
         inkscape:connector-curvature="0" /></g><g
       id="g464"
       transform="translate(184.1171,140.7017)"><path
         d="M 0,0 0,12.261"
         style="fill:none;stroke:#231f20;stroke-width:0.5;stroke-linecap:butt;stroke-linejoin:miter;stroke-miterlimit:10;stroke-dasharray:none;stroke-opacity:1"
         id="path466"
         inkscape:connector-curvature="0" /></g><g
       id="g468"
       transform="translate(304.4646,153.213)"><path
         d="M 0,0 120.597,0"
         style="fill:none;stroke:#231f20;stroke-width:0.5;stroke-linecap:butt;stroke-linejoin:miter;stroke-miterlimit:10;stroke-dasharray:none;stroke-opacity:1"
         id="path470"
         inkscape:connector-curvature="0" /></g><g
       id="g472"
       transform="translate(304.4646,140.4517)"><path
         d="M 0,0 0,12.511"
         style="fill:none;stroke:#231f20;stroke-width:0.5;stroke-linecap:butt;stroke-linejoin:miter;stroke-miterlimit:10;stroke-dasharray:none;stroke-opacity:1"
         id="path474"
         inkscape:connector-curvature="0" /></g><g
       id="g476"
       transform="translate(424.812,140.4517)"><path
         d="M 0,0 0,12.511"
         style="fill:none;stroke:#231f20;stroke-width:0.5;stroke-linecap:butt;stroke-linejoin:miter;stroke-miterlimit:10;stroke-dasharray:none;stroke-opacity:1"
         id="path478"
         inkscape:connector-curvature="0" /></g><g
       id="g480"
       transform="translate(304.4646,127.6905)"><path
         d="M 0,0 0,12.761"
         style="fill:none;stroke:#231f20;stroke-width:0.5;stroke-linecap:butt;stroke-linejoin:miter;stroke-miterlimit:10;stroke-dasharray:none;stroke-opacity:1"
         id="path482"
         inkscape:connector-curvature="0" /></g><g
       id="g484"
       transform="translate(424.812,127.6905)"><path
         d="M 0,0 0,12.761"
         style="fill:none;stroke:#231f20;stroke-width:0.5;stroke-linecap:butt;stroke-linejoin:miter;stroke-miterlimit:10;stroke-dasharray:none;stroke-opacity:1"
         id="path486"
         inkscape:connector-curvature="0" /></g><g
       id="g488"
       transform="translate(304.4646,115.1792)"><path
         d="M 0,0 0,12.511"
         style="fill:none;stroke:#231f20;stroke-width:0.5;stroke-linecap:butt;stroke-linejoin:miter;stroke-miterlimit:10;stroke-dasharray:none;stroke-opacity:1"
         id="path490"
         inkscape:connector-curvature="0" /></g><g
       id="g492"
       transform="translate(424.812,115.1792)"><path
         d="M 0,0 0,12.511"
         style="fill:none;stroke:#231f20;stroke-width:0.5;stroke-linecap:butt;stroke-linejoin:miter;stroke-miterlimit:10;stroke-dasharray:none;stroke-opacity:1"
         id="path494"
         inkscape:connector-curvature="0" /></g><g
       id="g496"
       transform="translate(63.5197,140.4517)"><path
         d="M 0,0 120.847,0"
         style="fill:none;stroke:#231f20;stroke-width:0.5;stroke-linecap:butt;stroke-linejoin:miter;stroke-miterlimit:10;stroke-dasharray:none;stroke-opacity:1"
         id="path498"
         inkscape:connector-curvature="0" /></g><g
       id="g500"
       transform="translate(63.7697,127.9405)"><path
         d="M 0,0 0,12.261"
         style="fill:none;stroke:#231f20;stroke-width:0.5;stroke-linecap:butt;stroke-linejoin:miter;stroke-miterlimit:10;stroke-dasharray:none;stroke-opacity:1"
         id="path502"
         inkscape:connector-curvature="0" /></g><g
       id="g504"
       transform="translate(184.1171,127.9405)"><path
         d="M 0,0 0,12.261"
         style="fill:none;stroke:#231f20;stroke-width:0.5;stroke-linecap:butt;stroke-linejoin:miter;stroke-miterlimit:10;stroke-dasharray:none;stroke-opacity:1"
         id="path506"
         inkscape:connector-curvature="0" /></g><g
       id="g508"
       transform="translate(63.5197,127.6905)"><path
         d="M 0,0 120.847,0"
         style="fill:none;stroke:#231f20;stroke-width:0.5;stroke-linecap:butt;stroke-linejoin:miter;stroke-miterlimit:10;stroke-dasharray:none;stroke-opacity:1"
         id="path510"
         inkscape:connector-curvature="0" /></g><g
       id="g512"
       transform="translate(63.7697,115.1792)"><path
         d="M 0,0 0,12.261"
         style="fill:none;stroke:#231f20;stroke-width:0.5;stroke-linecap:butt;stroke-linejoin:miter;stroke-miterlimit:10;stroke-dasharray:none;stroke-opacity:1"
         id="path514"
         inkscape:connector-curvature="0" /></g><g
       id="g516"
       transform="translate(184.1171,115.1792)"><path
         d="M 0,0 0,12.261"
         style="fill:none;stroke:#231f20;stroke-width:0.5;stroke-linecap:butt;stroke-linejoin:miter;stroke-miterlimit:10;stroke-dasharray:none;stroke-opacity:1"
         id="path518"
         inkscape:connector-curvature="0" /></g><g
       id="g520"
       transform="translate(63.5197,114.9292)"><path
         d="M 0,0 120.597,0"
         style="fill:none;stroke:#231f20;stroke-width:0.5;stroke-linecap:butt;stroke-linejoin:miter;stroke-miterlimit:10;stroke-dasharray:none;stroke-opacity:1"
         id="path522"
         inkscape:connector-curvature="0" /></g><g
       id="g524"
       transform="translate(63.7697,102.418)"><path
         d="M 0,0 0,12.261"
         style="fill:none;stroke:#231f20;stroke-width:0.5;stroke-linecap:butt;stroke-linejoin:miter;stroke-miterlimit:10;stroke-dasharray:none;stroke-opacity:1"
         id="path526"
         inkscape:connector-curvature="0" /></g><g
       id="g528"
       transform="translate(184.1171,114.9292)"><path
         d="M 0,0 120.347,0"
         style="fill:none;stroke:#231f20;stroke-width:0.5;stroke-linecap:butt;stroke-linejoin:miter;stroke-miterlimit:10;stroke-dasharray:none;stroke-opacity:1"
         id="path530"
         inkscape:connector-curvature="0" /></g><g
       id="g532"
       transform="translate(184.1171,102.418)"><path
         d="M 0,0 0,12.261"
         style="fill:none;stroke:#231f20;stroke-width:0.5;stroke-linecap:butt;stroke-linejoin:miter;stroke-miterlimit:10;stroke-dasharray:none;stroke-opacity:1"
         id="path534"
         inkscape:connector-curvature="0" /></g><g
       id="g536"
       transform="translate(304.4646,114.9292)"><path
         d="M 0,0 120.347,0"
         style="fill:none;stroke:#231f20;stroke-width:0.5;stroke-linecap:butt;stroke-linejoin:miter;stroke-miterlimit:10;stroke-dasharray:none;stroke-opacity:1"
         id="path538"
         inkscape:connector-curvature="0" /></g><g
       id="g540"
       transform="translate(304.4646,102.168)"><path
         d="M 0,0 0,12.511"
         style="fill:none;stroke:#231f20;stroke-width:0.5;stroke-linecap:butt;stroke-linejoin:miter;stroke-miterlimit:10;stroke-dasharray:none;stroke-opacity:1"
         id="path542"
         inkscape:connector-curvature="0" /></g><g
       id="g544"
       transform="translate(424.812,114.9292)"><path
         d="M 0,0 120.597,0"
         style="fill:none;stroke:#231f20;stroke-width:0.5;stroke-linecap:butt;stroke-linejoin:miter;stroke-miterlimit:10;stroke-dasharray:none;stroke-opacity:1"
         id="path546"
         inkscape:connector-curvature="0" /></g><g
       id="g548"
       transform="translate(424.812,102.168)"><path
         d="M 0,0 0,12.511"
         style="fill:none;stroke:#231f20;stroke-width:0.5;stroke-linecap:butt;stroke-linejoin:miter;stroke-miterlimit:10;stroke-dasharray:none;stroke-opacity:1"
         id="path550"
         inkscape:connector-curvature="0" /></g><g
       id="g552"
       transform="translate(545.1594,102.168)"><path
         d="M 0,0 0,12.511"
         style="fill:none;stroke:#231f20;stroke-width:0.5;stroke-linecap:butt;stroke-linejoin:miter;stroke-miterlimit:10;stroke-dasharray:none;stroke-opacity:1"
         id="path554"
         inkscape:connector-curvature="0" /></g><g
       id="g556"
       transform="translate(304.4646,89.4068)"><path
         d="M 0,0 0,12.761"
         style="fill:none;stroke:#231f20;stroke-width:0.5;stroke-linecap:butt;stroke-linejoin:miter;stroke-miterlimit:10;stroke-dasharray:none;stroke-opacity:1"
         id="path558"
         inkscape:connector-curvature="0" /></g><g
       id="g560"
       transform="translate(424.812,89.4068)"><path
         d="M 0,0 0,12.761"
         style="fill:none;stroke:#231f20;stroke-width:0.5;stroke-linecap:butt;stroke-linejoin:miter;stroke-miterlimit:10;stroke-dasharray:none;stroke-opacity:1"
         id="path562"
         inkscape:connector-curvature="0" /></g><g
       id="g564"
       transform="translate(545.1594,89.4068)"><path
         d="M 0,0 0,12.761"
         style="fill:none;stroke:#231f20;stroke-width:0.5;stroke-linecap:butt;stroke-linejoin:miter;stroke-miterlimit:10;stroke-dasharray:none;stroke-opacity:1"
         id="path566"
         inkscape:connector-curvature="0" /></g><g
       id="g568"
       transform="translate(304.4646,76.6455)"><path
         d="M 0,0 0,12.761"
         style="fill:none;stroke:#231f20;stroke-width:0.5;stroke-linecap:butt;stroke-linejoin:miter;stroke-miterlimit:10;stroke-dasharray:none;stroke-opacity:1"
         id="path570"
         inkscape:connector-curvature="0" /></g><g
       id="g572"
       transform="translate(424.812,76.6455)"><path
         d="M 0,0 0,12.761"
         style="fill:none;stroke:#231f20;stroke-width:0.5;stroke-linecap:butt;stroke-linejoin:miter;stroke-miterlimit:10;stroke-dasharray:none;stroke-opacity:1"
         id="path574"
         inkscape:connector-curvature="0" /></g><g
       id="g576"
       transform="translate(545.1594,76.6455)"><path
         d="M 0,0 0,12.761"
         style="fill:none;stroke:#231f20;stroke-width:0.5;stroke-linecap:butt;stroke-linejoin:miter;stroke-miterlimit:10;stroke-dasharray:none;stroke-opacity:1"
         id="path578"
         inkscape:connector-curvature="0" /></g><g
       id="g580"
       transform="translate(304.4646,64.1343)"><path
         d="M 0,0 0,12.511"
         style="fill:none;stroke:#231f20;stroke-width:0.5;stroke-linecap:butt;stroke-linejoin:miter;stroke-miterlimit:10;stroke-dasharray:none;stroke-opacity:1"
         id="path582"
         inkscape:connector-curvature="0" /></g><g
       id="g584"
       transform="translate(424.812,64.1343)"><path
         d="M 0,0 0,12.511"
         style="fill:none;stroke:#231f20;stroke-width:0.5;stroke-linecap:butt;stroke-linejoin:miter;stroke-miterlimit:10;stroke-dasharray:none;stroke-opacity:1"
         id="path586"
         inkscape:connector-curvature="0" /></g><g
       id="g588"
       transform="translate(545.1594,64.1343)"><path
         d="M 0,0 0,12.511"
         style="fill:none;stroke:#231f20;stroke-width:0.5;stroke-linecap:butt;stroke-linejoin:miter;stroke-miterlimit:10;stroke-dasharray:none;stroke-opacity:1"
         id="path590"
         inkscape:connector-curvature="0" /></g><g
       id="g592"
       transform="translate(63.5197,102.168)"><path
         d="M 0,0 120.847,0"
         style="fill:none;stroke:#231f20;stroke-width:0.5;stroke-linecap:butt;stroke-linejoin:miter;stroke-miterlimit:10;stroke-dasharray:none;stroke-opacity:1"
         id="path594"
         inkscape:connector-curvature="0" /></g><g
       id="g596"
       transform="translate(63.7697,89.6568)"><path
         d="M 0,0 0,12.261"
         style="fill:none;stroke:#231f20;stroke-width:0.5;stroke-linecap:butt;stroke-linejoin:miter;stroke-miterlimit:10;stroke-dasharray:none;stroke-opacity:1"
         id="path598"
         inkscape:connector-curvature="0" /></g><g
       id="g600"
       transform="translate(184.1171,89.6568)"><path
         d="M 0,0 0,12.261"
         style="fill:none;stroke:#231f20;stroke-width:0.5;stroke-linecap:butt;stroke-linejoin:miter;stroke-miterlimit:10;stroke-dasharray:none;stroke-opacity:1"
         id="path602"
         inkscape:connector-curvature="0" /></g><g
       id="g604"
       transform="translate(63.5197,89.4068)"><path
         d="M 0,0 120.847,0"
         style="fill:none;stroke:#231f20;stroke-width:0.5;stroke-linecap:butt;stroke-linejoin:miter;stroke-miterlimit:10;stroke-dasharray:none;stroke-opacity:1"
         id="path606"
         inkscape:connector-curvature="0" /></g><g
       id="g608"
       transform="translate(63.7697,76.8955)"><path
         d="M 0,0 0,12.261"
         style="fill:none;stroke:#231f20;stroke-width:0.5;stroke-linecap:butt;stroke-linejoin:miter;stroke-miterlimit:10;stroke-dasharray:none;stroke-opacity:1"
         id="path610"
         inkscape:connector-curvature="0" /></g><g
       id="g612"
       transform="translate(184.1171,76.8955)"><path
         d="M 0,0 0,12.261"
         style="fill:none;stroke:#231f20;stroke-width:0.5;stroke-linecap:butt;stroke-linejoin:miter;stroke-miterlimit:10;stroke-dasharray:none;stroke-opacity:1"
         id="path614"
         inkscape:connector-curvature="0" /></g><g
       id="g616"
       transform="translate(63.5197,76.6455)"><path
         d="M 0,0 120.847,0"
         style="fill:none;stroke:#231f20;stroke-width:0.5;stroke-linecap:butt;stroke-linejoin:miter;stroke-miterlimit:10;stroke-dasharray:none;stroke-opacity:1"
         id="path618"
         inkscape:connector-curvature="0" /></g><g
       id="g620"
       transform="translate(63.7697,64.1343)"><path
         d="M 0,0 0,12.261"
         style="fill:none;stroke:#231f20;stroke-width:0.5;stroke-linecap:butt;stroke-linejoin:miter;stroke-miterlimit:10;stroke-dasharray:none;stroke-opacity:1"
         id="path622"
         inkscape:connector-curvature="0" /></g><g
       id="g624"
       transform="translate(184.1171,64.1343)"><path
         d="M 0,0 0,12.261"
         style="fill:none;stroke:#231f20;stroke-width:0.5;stroke-linecap:butt;stroke-linejoin:miter;stroke-miterlimit:10;stroke-dasharray:none;stroke-opacity:1"
         id="path626"
         inkscape:connector-curvature="0" /></g><g
       id="g628"
       transform="translate(63.5197,63.8843)"><path
         d="M 0,0 120.597,0"
         style="fill:none;stroke:#231f20;stroke-width:0.5;stroke-linecap:butt;stroke-linejoin:miter;stroke-miterlimit:10;stroke-dasharray:none;stroke-opacity:1"
         id="path630"
         inkscape:connector-curvature="0" /></g><g
       id="g632"
       transform="translate(184.1171,63.8843)"><path
         d="M 0,0 120.347,0"
         style="fill:none;stroke:#231f20;stroke-width:0.5;stroke-linecap:butt;stroke-linejoin:miter;stroke-miterlimit:10;stroke-dasharray:none;stroke-opacity:1"
         id="path634"
         inkscape:connector-curvature="0" /></g><g
       id="g636"
       transform="translate(304.4646,63.8843)"><path
         d="M 0,0 120.347,0"
         style="fill:none;stroke:#231f20;stroke-width:0.5;stroke-linecap:butt;stroke-linejoin:miter;stroke-miterlimit:10;stroke-dasharray:none;stroke-opacity:1"
         id="path638"
         inkscape:connector-curvature="0" /></g><g
       id="g640"
       transform="translate(424.812,63.8843)"><path
         d="M 0,0 120.597,0"
         style="fill:none;stroke:#231f20;stroke-width:0.5;stroke-linecap:butt;stroke-linejoin:miter;stroke-miterlimit:10;stroke-dasharray:none;stroke-opacity:1"
         id="path642"
         inkscape:connector-curvature="0" /></g><g
       id="g644"><g
         id="g646"
         clip-path="url(#clipPath648)"><text
           transform="matrix(1,0,0,-1,179.1575,247.1687)"
           style="font-variant:normal;font-weight:bold;font-stretch:normal;font-size:9px;font-family:'Helvetica 95 Black';-inkscape-font-specification:HelveticaNeue-Black;writing-mode:lr-tb;fill:#ffffff;fill-opacity:1;fill-rule:nonzero;stroke:none"
           id="text652"><tspan
             x="0 5.013 10.512 16.344 22.014 24.849001 30.348 33.354 39.366001 42.372002 48.383999 51.389999 55.889999 58.896 63.909 69.579002 75.411003 80.577003 86.247002 91.917 97.083 100.089 105.921 111.087 116.919 122.418 125.253 130.41901 133.425 139.095 147.76199 150.76801 155.93401 158.769 163.935 167.59801 173.26801 181.935 187.43401 192.60001 195.606 201.438 207.108 210.114 215.946 221.616 225.27901 230.94901 236.78101 242.28 245.11501"
             y="0"
             sodipodi:role="line"
             id="tspan654">Tabela 1.1 – Tensões usuais em sistemas de potência</tspan></text>
<text
           transform="matrix(1,0,0,-1,162.4535,228.5477)"
           style="font-variant:normal;font-weight:bold;font-stretch:condensed;font-size:9px;font-family:'HelveticaNeue MediumCond';-inkscape-font-specification:HelveticaNeue-HeavyCond;writing-mode:lr-tb;fill:#231f20;fill-opacity:1;fill-rule:nonzero;stroke:none"
           id="text656"><tspan
             x="0 3.654 7.9829998 12.654 16.820999 21.320999 25.820999 28.160999 30.996 35.667 40.5"
             y="0"
             sodipodi:role="line"
             id="tspan658">Tensão (kV)</tspan><tspan
             x="164.511 169.34399 173.84399 181.008 185.679 190.179 192.519 197.19 201.519 203.85899 208.35899 213.03 215.37 217.71001 222.039 226.539 230.868 235.368 269.32501 274.491 277.71301 282.04199 286.54199 288.88199 293.55301 298.05301 300.39301 304.56 306.89999 311.06699 313.90201 318.23099 325.39499 329.89499 332.23499 336.90601 341.23499 343.57501 348.246 352.746 355.58099 359.91 364.58099 368.91 371.25"
             y="9.3059998"
             sodipodi:role="line"
             id="tspan660">Campo de aplicaçãoÁrea do sistema de potência</tspan><tspan
             x="-61.713001 -57.042 -52.542 -47.870998 -44.648998 -40.148998 -35.478001 -33.138 -28.971001 -24.471001 -19.799999 64.674004 69.174004 73.502998 75.843002 80.010002 82.845001 87.174004 91.845001 94.68"
             y="18.612"
             sodipodi:role="line"
             id="tspan662">PadronizadaExistente</tspan></text>
<text
           transform="matrix(1,0,0,-1,103.2605,194.3387)"
           style="font-variant:normal;font-weight:normal;font-stretch:condensed;font-size:9px;font-family:'HelveticaNeue Condensed';-inkscape-font-specification:HelveticaNeue-Condensed;writing-mode:lr-tb;fill:#231f20;fill-opacity:1;fill-rule:nonzero;stroke:none"
           id="text664"><tspan
             x="0 4.3200002 6.48 10.8 15.12 19.440001 21.941999 26.261999 28.422001 32.742001 37.062 131.319 135.63901 137.799 142.119 146.439"
             y="0"
             sodipodi:role="line"
             id="tspan666">0,220/0,1270,110</tspan></text>
<text
           transform="matrix(1,0,0,-1,344.9825,193.3577)"
           style="font-variant:normal;font-weight:normal;font-stretch:condensed;font-size:9px;font-family:'HelveticaNeue Condensed';-inkscape-font-specification:HelveticaNeue-Condensed;writing-mode:lr-tb;fill:#231f20;fill-opacity:1;fill-rule:nonzero;stroke:none"
           id="text668"><tspan
             x="0 5.0040002 6.8400002 10.503 12.834 15.498 17.334 21.500999 25.667999 27.504 31.337999 35.334"
             y="0"
             sodipodi:role="line"
             id="tspan670">Distribuição</tspan><tspan
             x="-6.2459998 -2.5829999 1.413 5.2470002 9.4139996 13.581 17.747999 21.743999 24.408001 26.243999 30.24 32.400002 34.569 39.240002 43.407001"
             y="10.8"
             sodipodi:role="line"
             id="tspan672">secundária (BT)</tspan><tspan
             x="120.348 125.352 127.188 130.851 133.18201 135.84599 137.68201 141.849 146.01601 147.85201 151.686 155.68201"
             y="37.305"
             sodipodi:role="line"
             id="tspan674">Distribuição</tspan></text>
<text
           transform="matrix(1,0,0,-1,103.2605,181.5767)"
           style="font-variant:normal;font-weight:normal;font-stretch:condensed;font-size:9px;font-family:'HelveticaNeue Condensed';-inkscape-font-specification:HelveticaNeue-Condensed;writing-mode:lr-tb;fill:#231f20;fill-opacity:1;fill-rule:nonzero;stroke:none"
           id="text676"><tspan
             x="0 4.3200002 6.48 10.8 15.12 19.440001 21.941999 26.261999 28.422001 32.742001 37.062 120.348 124.668 126.828 131.14799 135.468 139.78799 142.28999 146.61 148.77 153.09 157.41"
             y="0"
             sodipodi:role="line"
             id="tspan678">0,380/0,2200,230/0,115</tspan><tspan
             x="13.131 17.451 21.771 23.931 133.479 137.799 142.119 144.27901"
             y="12.762"
             sodipodi:role="line"
             id="tspan680">13,811,9</tspan></text>
<text
           transform="matrix(1,0,0,-1,344.9825,167.8337)"
           style="font-variant:normal;font-weight:normal;font-stretch:condensed;font-size:9px;font-family:'HelveticaNeue Condensed';-inkscape-font-specification:HelveticaNeue-Condensed;writing-mode:lr-tb;fill:#231f20;fill-opacity:1;fill-rule:nonzero;stroke:none"
           id="text682"><tspan
             x="0 5.0040002 6.8400002 10.503 12.834 15.498 17.334 21.500999 25.667999 27.504 31.337999 35.334"
             y="0"
             sodipodi:role="line"
             id="tspan684">Distribuição</tspan><tspan
             x="-2.664 1.503 4.1669998 6.0029998 12.501 16.497 19.160999 20.997 24.993 27.153 29.322001 35.658001 39.825001"
             y="10.8"
             sodipodi:role="line"
             id="tspan686">primária (MT)</tspan></text>
<text
           transform="matrix(1,0,0,-1,116.3915,156.0527)"
           style="font-variant:normal;font-weight:normal;font-stretch:condensed;font-size:9px;font-family:'HelveticaNeue Condensed';-inkscape-font-specification:HelveticaNeue-Condensed;writing-mode:lr-tb;fill:#231f20;fill-opacity:1;fill-rule:nonzero;stroke:none"
           id="text688"><tspan
             x="0 4.3200002 8.6400003 10.8 120.348 124.668 128.98801 131.14799"
             y="0"
             sodipodi:role="line"
             id="tspan690">34,522,5</tspan><tspan
             x="0 4.3200002 8.6400003 10.8"
             y="12.762"
             sodipodi:role="line"
             id="tspan692">34,5</tspan><tspan
             x="120.348 124.668 128.98801 131.14799"
             y="25.524"
             sodipodi:role="line"
             id="tspan694">88,0</tspan></text>
<text
           transform="matrix(1,0,0,-1,337.9895,135.9287)"
           style="font-variant:normal;font-weight:normal;font-stretch:condensed;font-size:9px;font-family:'HelveticaNeue Condensed';-inkscape-font-specification:HelveticaNeue-Condensed;writing-mode:lr-tb;fill:#231f20;fill-opacity:1;fill-rule:nonzero;stroke:none"
           id="text696"><tspan
             x="0 4.5 8.6669998 12.834 15.165 17.829 21.825001 25.992001 29.655001 36.153 37.988998 41.652 45.314999 49.311001"
             y="0"
             sodipodi:role="line"
             id="tspan698">Subtransmissão</tspan><tspan
             x="20.393999 22.563 26.568001 30.735001"
             y="10.8"
             sodipodi:role="line"
             id="tspan700">(AT)</tspan></text>
<text
           transform="matrix(1,0,0,-1,116.3825,130.5287)"
           style="font-variant:normal;font-weight:normal;font-stretch:condensed;font-size:9px;font-family:'HelveticaNeue Condensed';-inkscape-font-specification:HelveticaNeue-Condensed;writing-mode:lr-tb;fill:#231f20;fill-opacity:1;fill-rule:nonzero;stroke:none"
           id="text702"><tspan
             x="0 4.3200002 8.6400003 10.8"
             y="0"
             sodipodi:role="line"
             id="tspan704">69,0</tspan><tspan
             x="-2.1600001 2.1600001 6.48 10.8 12.96"
             y="12.762"
             sodipodi:role="line"
             id="tspan706">138,0</tspan><tspan
             x="-2.1600001 2.1600001 6.48 10.8 12.96"
             y="25.524"
             sodipodi:role="line"
             id="tspan708">138,0</tspan><tspan
             x="118.188 122.508 126.828 131.14799 133.308"
             y="39.266998"
             sodipodi:role="line"
             id="tspan710">440,0</tspan><tspan
             x="118.188 122.508 126.828 131.14799 133.308"
             y="50.067001"
             sodipodi:role="line"
             id="tspan712">750,0</tspan><tspan
             x="227.42999 230.931 233.595 237.591 241.758 245.42101 251.91901 253.755 257.418 261.08099 265.077 347.77802 351.27899 353.94299 357.939 362.10599 365.76901 372.267 374.103 377.76599 381.42899 385.42499"
             y="44.667"
             sodipodi:role="line"
             id="tspan714">TransmissãoTransmissão</tspan><tspan
             x="-2.1600001 2.1600001 6.48 10.8 12.96"
             y="38.285999"
             sodipodi:role="line"
             id="tspan716">230,0</tspan><tspan
             x="-2.1600001 2.1600001 6.48 10.8 12.96"
             y="51.048"
             sodipodi:role="line"
             id="tspan718">345,0</tspan><tspan
             x="-2.1600001 2.1600001 6.48 10.8 12.96"
             y="63.810001"
             sodipodi:role="line"
             id="tspan720">500,0</tspan></text>
</g></g></g></svg>