<?xml version="1.0" encoding="UTF-8" standalone="no"?>
<!-- Created with Inkscape (http://www.inkscape.org/) -->

<svg
   xmlns:dc="http://purl.org/dc/elements/1.1/"
   xmlns:cc="http://creativecommons.org/ns#"
   xmlns:rdf="http://www.w3.org/1999/02/22-rdf-syntax-ns#"
   xmlns:svg="http://www.w3.org/2000/svg"
   xmlns="http://www.w3.org/2000/svg"
   xmlns:sodipodi="http://sodipodi.sourceforge.net/DTD/sodipodi-0.dtd"
   xmlns:inkscape="http://www.inkscape.org/namespaces/inkscape"
   id="svg2"
   version="1.1"
   inkscape:version="0.91 r13725"
   xml:space="preserve"
   width="407.79251"
   height="267.87375"
   viewBox="0 0 407.79251 267.87375"
   sodipodi:docname="fig_6.svg"><metadata
     id="metadata8"><rdf:RDF><cc:Work
         rdf:about=""><dc:format>image/svg+xml</dc:format><dc:type
           rdf:resource="http://purl.org/dc/dcmitype/StillImage" /><dc:title></dc:title></cc:Work></rdf:RDF></metadata><defs
     id="defs6"><clipPath
       clipPathUnits="userSpaceOnUse"
       id="clipPath16"><path
         d="m 21,21 581.103,0 0,722.835 L 21,743.835 21,21 Z"
         id="path18"
         inkscape:connector-curvature="0" /></clipPath><clipPath
       clipPathUnits="userSpaceOnUse"
       id="clipPath36"><path
         d="m 63.52,695.645 141.732,0 0,2.835 -141.732,0 0,-2.835 z"
         id="path38"
         inkscape:connector-curvature="0" /></clipPath><linearGradient
       x1="0"
       y1="0"
       x2="1"
       y2="0"
       gradientUnits="userSpaceOnUse"
       gradientTransform="matrix(141.73228,0,0,-141.73228,63.519653,695.64536)"
       spreadMethod="pad"
       id="linearGradient44"><stop
         style="stop-opacity:1;stop-color:#231f20"
         offset="0"
         id="stop46" /><stop
         style="stop-opacity:1;stop-color:#ffffff"
         offset="1"
         id="stop48" /></linearGradient><clipPath
       clipPathUnits="userSpaceOnUse"
       id="clipPath56"><path
         d="m 219.425,695.645 325.984,0 0,2.835 -325.984,0 0,-2.835 z"
         id="path58"
         inkscape:connector-curvature="0" /></clipPath><linearGradient
       x1="0"
       y1="0"
       x2="1"
       y2="0"
       gradientUnits="userSpaceOnUse"
       gradientTransform="matrix(325.98425,0,0,-325.98425,219.42517,695.64536)"
       spreadMethod="pad"
       id="linearGradient64"><stop
         style="stop-opacity:1;stop-color:#231f20"
         offset="0"
         id="stop66" /><stop
         style="stop-opacity:1;stop-color:#ffffff"
         offset="1"
         id="stop68" /></linearGradient><clipPath
       clipPathUnits="userSpaceOnUse"
       id="clipPath76"><path
         d="m 21,21 581.102,0 0,722.835 L 21,743.835 21,21 Z"
         id="path78"
         inkscape:connector-curvature="0" /></clipPath><clipPath
       clipPathUnits="userSpaceOnUse"
       id="clipPath172"><path
         d="m 219.425,458.919 325.734,0 0,213.799 -325.734,0 0,-213.799 z"
         id="path174"
         inkscape:connector-curvature="0" /></clipPath><clipPath
       clipPathUnits="userSpaceOnUse"
       id="clipPath424"><path
         d="m 0,0 623.102,0 0,764.835 L 0,764.835 0,0 Z"
         id="path426"
         inkscape:connector-curvature="0" /></clipPath></defs><sodipodi:namedview
     pagecolor="#ffffff"
     bordercolor="#666666"
     borderopacity="1"
     objecttolerance="10"
     gridtolerance="10"
     guidetolerance="10"
     inkscape:pageopacity="0"
     inkscape:pageshadow="2"
     inkscape:window-width="1366"
     inkscape:window-height="711"
     id="namedview4"
     showgrid="false"
     fit-margin-top="0"
     fit-margin-left="0"
     fit-margin-right="0"
     fit-margin-bottom="0"
     inkscape:zoom="0.51808708"
     inkscape:cx="252.78985"
     inkscape:cy="-23.830555"
     inkscape:window-x="0"
     inkscape:window-y="27"
     inkscape:window-maximized="1"
     inkscape:current-layer="g10" /><g
     id="g10"
     inkscape:groupmode="layer"
     inkscape:label="Kagan_Cap1"
     transform="matrix(1.25,0,0,-1.25,-273.96875,841.21)"><g
       id="g72" /><g
       id="g168"><g
         id="g170"
         clip-path="url(#clipPath172)"><g
           id="g176"
           transform="translate(468.0961,536.0563)"><path
             d="M 0,0 58.284,0 M -208.35,36.768 c 0,3.906 3.167,7.073 7.073,7.073 3.905,0 7.072,-3.167 7.072,-7.073 0,-3.906 -3.167,-7.072 -7.072,-7.072 -3.906,0 -7.073,3.166 -7.073,7.072 z m 0,7.073 c 0,3.906 3.167,7.072 7.073,7.072 3.905,0 7.072,-3.166 7.072,-7.072 0,-3.906 -3.167,-7.072 -7.072,-7.072 -3.906,0 -7.073,3.166 -7.073,7.072 z m 7.073,-14.128 0,-23.848 m 0,45.63 0,79.948 m -29.425,-126.518 0,-41.353"
             style="fill:none;stroke:#231f20;stroke-width:1;stroke-linecap:butt;stroke-linejoin:miter;stroke-miterlimit:3.86400008;stroke-dasharray:none;stroke-opacity:1"
             id="path178"
             inkscape:connector-curvature="0" /></g><g
           id="g180"
           transform="translate(237.3939,499.6278)"><path
             d="M 0,0 2,3 -2,3 0,0 Z"
             style="fill:#231f20;fill-opacity:1;fill-rule:nonzero;stroke:none"
             id="path182"
             inkscape:connector-curvature="0" /></g><g
           id="g184"
           transform="translate(237.3939,499.6278)"><path
             d="M 0,0 2,3 -2,3 0,0 Z"
             style="fill:none;stroke:#231f20;stroke-width:1;stroke-linecap:butt;stroke-linejoin:miter;stroke-miterlimit:3.86400008;stroke-dasharray:none;stroke-opacity:1"
             id="path186"
             inkscape:connector-curvature="0" /></g><path
           d="m 231.646,532.054 11.496,0 0,-11.496 -11.496,0 0,11.496 z"
           style="fill:#ffffff;fill-opacity:1;fill-rule:nonzero;stroke:#231f20;stroke-width:1;stroke-linecap:butt;stroke-linejoin:miter;stroke-miterlimit:3.86400008;stroke-dasharray:none;stroke-opacity:1"
           id="path188"
           inkscape:connector-curvature="0" /><g
           id="g190"
           transform="translate(256.8124,540.9817)"><path
             d="M 0,0 0,-41.354"
             style="fill:none;stroke:#231f20;stroke-width:1;stroke-linecap:butt;stroke-linejoin:miter;stroke-miterlimit:3.86400008;stroke-dasharray:none;stroke-opacity:1"
             id="path192"
             inkscape:connector-curvature="0" /></g><g
           id="g194"
           transform="translate(256.8124,499.6278)"><path
             d="M 0,0 2,3 -2,3 0,0 Z"
             style="fill:#231f20;fill-opacity:1;fill-rule:nonzero;stroke:none"
             id="path196"
             inkscape:connector-curvature="0" /></g><g
           id="g198"
           transform="translate(256.8124,499.6278)"><path
             d="M 0,0 2,3 -2,3 0,0 Z"
             style="fill:none;stroke:#231f20;stroke-width:1;stroke-linecap:butt;stroke-linejoin:miter;stroke-miterlimit:3.86400008;stroke-dasharray:none;stroke-opacity:1"
             id="path200"
             inkscape:connector-curvature="0" /></g><path
           d="m 251.064,532.054 11.496,0 0,-11.496 -11.496,0 0,11.496 z"
           style="fill:#ffffff;fill-opacity:1;fill-rule:nonzero;stroke:#231f20;stroke-width:1;stroke-linecap:butt;stroke-linejoin:miter;stroke-miterlimit:3.86400008;stroke-dasharray:none;stroke-opacity:1"
           id="path202"
           inkscape:connector-curvature="0" /><g
           id="g204"
           transform="translate(276.2308,540.9817)"><path
             d="M 0,0 0,-41.354"
             style="fill:none;stroke:#231f20;stroke-width:1;stroke-linecap:butt;stroke-linejoin:miter;stroke-miterlimit:3.86400008;stroke-dasharray:none;stroke-opacity:1"
             id="path206"
             inkscape:connector-curvature="0" /></g><g
           id="g208"
           transform="translate(276.2308,499.6278)"><path
             d="M 0,0 2,3 -2,3 0,0 Z"
             style="fill:#231f20;fill-opacity:1;fill-rule:nonzero;stroke:none"
             id="path210"
             inkscape:connector-curvature="0" /></g><g
           id="g212"
           transform="translate(276.2308,499.6278)"><path
             d="M 0,0 2,3 -2,3 0,0 Z"
             style="fill:none;stroke:#231f20;stroke-width:1;stroke-linecap:butt;stroke-linejoin:miter;stroke-miterlimit:3.86400008;stroke-dasharray:none;stroke-opacity:1"
             id="path214"
             inkscape:connector-curvature="0" /></g><path
           d="m 270.483,532.054 11.496,0 0,-11.496 -11.496,0 0,11.496 z"
           style="fill:#ffffff;fill-opacity:1;fill-rule:nonzero;stroke:#231f20;stroke-width:1;stroke-linecap:butt;stroke-linejoin:miter;stroke-miterlimit:3.86400008;stroke-dasharray:none;stroke-opacity:1"
           id="path216"
           inkscape:connector-curvature="0" /><g
           id="g218"
           transform="translate(295.6494,540.9817)"><path
             d="M 0,0 0,-41.354"
             style="fill:none;stroke:#231f20;stroke-width:1;stroke-linecap:butt;stroke-linejoin:miter;stroke-miterlimit:3.86400008;stroke-dasharray:none;stroke-opacity:1"
             id="path220"
             inkscape:connector-curvature="0" /></g><g
           id="g222"
           transform="translate(295.6494,499.6278)"><path
             d="M 0,0 2,3 -2,3 0,0 Z"
             style="fill:#231f20;fill-opacity:1;fill-rule:nonzero;stroke:none"
             id="path224"
             inkscape:connector-curvature="0" /></g><g
           id="g226"
           transform="translate(295.6494,499.6278)"><path
             d="M 0,0 2,3 -2,3 0,0 Z"
             style="fill:none;stroke:#231f20;stroke-width:1;stroke-linecap:butt;stroke-linejoin:miter;stroke-miterlimit:3.86400008;stroke-dasharray:none;stroke-opacity:1"
             id="path228"
             inkscape:connector-curvature="0" /></g><path
           d="m 289.901,532.054 11.496,0 0,-11.496 -11.496,0 0,11.496 z"
           style="fill:#ffffff;fill-opacity:1;fill-rule:nonzero;stroke:#231f20;stroke-width:1;stroke-linecap:butt;stroke-linejoin:miter;stroke-miterlimit:3.86400008;stroke-dasharray:none;stroke-opacity:1"
           id="path230"
           inkscape:connector-curvature="0" /><g
           id="g232"
           transform="translate(230.9134,541.6082)"><path
             d="M 0,0 71.216,0"
             style="fill:none;stroke:#231f20;stroke-width:2;stroke-linecap:butt;stroke-linejoin:miter;stroke-miterlimit:3.86400008;stroke-dasharray:none;stroke-opacity:1"
             id="path234"
             inkscape:connector-curvature="0" /></g><path
           d="m 261.071,612.388 11.496,0 0,-11.496 -11.496,0 0,11.496 z"
           style="fill:#ffffff;fill-opacity:1;fill-rule:nonzero;stroke:#231f20;stroke-width:1;stroke-linecap:butt;stroke-linejoin:miter;stroke-miterlimit:3.86400008;stroke-dasharray:none;stroke-opacity:1"
           id="path236"
           inkscape:connector-curvature="0" /><g
           id="g238"
           transform="translate(230.9134,621.1079)"><path
             d="M 0,0 71.216,0"
             style="fill:none;stroke:#231f20;stroke-width:2;stroke-linecap:butt;stroke-linejoin:miter;stroke-miterlimit:3.86400008;stroke-dasharray:none;stroke-opacity:1"
             id="path240"
             inkscape:connector-curvature="0" /></g><path
           d="m 261.071,651.889 11.496,0 0,-11.496 -11.496,0 0,11.496 z"
           style="fill:#ffffff;fill-opacity:1;fill-rule:nonzero;stroke:#231f20;stroke-width:1;stroke-linecap:butt;stroke-linejoin:miter;stroke-miterlimit:3.86400008;stroke-dasharray:1, 1;stroke-dashoffset:0;stroke-opacity:1"
           id="path242"
           inkscape:connector-curvature="0" /><g
           id="g244"
           transform="translate(376.4963,572.8246)"><path
             d="m 0,0 c 0,3.906 3.166,7.073 7.072,7.073 3.906,0 7.073,-3.167 7.073,-7.073 0,-3.906 -3.167,-7.072 -7.073,-7.072 C 3.166,-7.072 0,-3.906 0,0 Z m 0,7.073 c 0,3.906 3.166,7.072 7.072,7.072 3.906,0 7.073,-3.166 7.073,-7.072 C 14.145,3.167 10.978,0 7.072,0 3.166,0 0,3.167 0,7.073 Z m 7.072,-14.128 0,-23.848 m 0,45.63 0,33.698 m -29.424,-80.268 0,-41.354"
             style="fill:none;stroke:#231f20;stroke-width:1;stroke-linecap:butt;stroke-linejoin:miter;stroke-miterlimit:3.86400008;stroke-dasharray:none;stroke-opacity:1"
             id="path246"
             inkscape:connector-curvature="0" /></g><g
           id="g248"
           transform="translate(354.144,499.6278)"><path
             d="M 0,0 2,3 -2,3 0,0 Z"
             style="fill:#231f20;fill-opacity:1;fill-rule:nonzero;stroke:none"
             id="path250"
             inkscape:connector-curvature="0" /></g><g
           id="g252"
           transform="translate(354.144,499.6278)"><path
             d="M 0,0 2,3 -2,3 0,0 Z"
             style="fill:none;stroke:#231f20;stroke-width:1;stroke-linecap:butt;stroke-linejoin:miter;stroke-miterlimit:3.86400008;stroke-dasharray:none;stroke-opacity:1"
             id="path254"
             inkscape:connector-curvature="0" /></g><path
           d="m 348.396,532.054 11.496,0 0,-11.496 -11.496,0 0,11.496 z"
           style="fill:#ffffff;fill-opacity:1;fill-rule:nonzero;stroke:#231f20;stroke-width:1;stroke-linecap:butt;stroke-linejoin:miter;stroke-miterlimit:3.86400008;stroke-dasharray:none;stroke-opacity:1"
           id="path256"
           inkscape:connector-curvature="0" /><g
           id="g258"
           transform="translate(373.5624,540.9817)"><path
             d="M 0,0 0,-41.354"
             style="fill:none;stroke:#231f20;stroke-width:1;stroke-linecap:butt;stroke-linejoin:miter;stroke-miterlimit:3.86400008;stroke-dasharray:none;stroke-opacity:1"
             id="path260"
             inkscape:connector-curvature="0" /></g><g
           id="g262"
           transform="translate(373.5624,499.6278)"><path
             d="M 0,0 2,3 -2,3 0,0 Z"
             style="fill:#231f20;fill-opacity:1;fill-rule:nonzero;stroke:none"
             id="path264"
             inkscape:connector-curvature="0" /></g><g
           id="g266"
           transform="translate(373.5624,499.6278)"><path
             d="M 0,0 2,3 -2,3 0,0 Z"
             style="fill:none;stroke:#231f20;stroke-width:1;stroke-linecap:butt;stroke-linejoin:miter;stroke-miterlimit:3.86400008;stroke-dasharray:none;stroke-opacity:1"
             id="path268"
             inkscape:connector-curvature="0" /></g><path
           d="m 367.814,532.054 11.496,0 0,-11.496 -11.496,0 0,11.496 z"
           style="fill:#ffffff;fill-opacity:1;fill-rule:nonzero;stroke:#231f20;stroke-width:1;stroke-linecap:butt;stroke-linejoin:miter;stroke-miterlimit:3.86400008;stroke-dasharray:none;stroke-opacity:1"
           id="path270"
           inkscape:connector-curvature="0" /><g
           id="g272"
           transform="translate(392.9808,540.9817)"><path
             d="M 0,0 0,-41.354"
             style="fill:none;stroke:#231f20;stroke-width:1;stroke-linecap:butt;stroke-linejoin:miter;stroke-miterlimit:3.86400008;stroke-dasharray:none;stroke-opacity:1"
             id="path274"
             inkscape:connector-curvature="0" /></g><g
           id="g276"
           transform="translate(392.9808,499.6278)"><path
             d="M 0,0 2,3 -2,3 0,0 Z"
             style="fill:#231f20;fill-opacity:1;fill-rule:nonzero;stroke:none"
             id="path278"
             inkscape:connector-curvature="0" /></g><g
           id="g280"
           transform="translate(392.9808,499.6278)"><path
             d="M 0,0 2,3 -2,3 0,0 Z"
             style="fill:none;stroke:#231f20;stroke-width:1;stroke-linecap:butt;stroke-linejoin:miter;stroke-miterlimit:3.86400008;stroke-dasharray:none;stroke-opacity:1"
             id="path282"
             inkscape:connector-curvature="0" /></g><path
           d="m 387.233,532.054 11.496,0 0,-11.496 -11.496,0 0,11.496 z"
           style="fill:#ffffff;fill-opacity:1;fill-rule:nonzero;stroke:#231f20;stroke-width:1;stroke-linecap:butt;stroke-linejoin:miter;stroke-miterlimit:3.86400008;stroke-dasharray:none;stroke-opacity:1"
           id="path284"
           inkscape:connector-curvature="0" /><g
           id="g286"
           transform="translate(412.3993,540.9817)"><path
             d="M 0,0 0,-41.354"
             style="fill:none;stroke:#231f20;stroke-width:1;stroke-linecap:butt;stroke-linejoin:miter;stroke-miterlimit:3.86400008;stroke-dasharray:none;stroke-opacity:1"
             id="path288"
             inkscape:connector-curvature="0" /></g><g
           id="g290"
           transform="translate(412.3993,499.6278)"><path
             d="M 0,0 2,3 -2,3 0,0 Z"
             style="fill:#231f20;fill-opacity:1;fill-rule:nonzero;stroke:none"
             id="path292"
             inkscape:connector-curvature="0" /></g><g
           id="g294"
           transform="translate(412.3993,499.6278)"><path
             d="M 0,0 2,3 -2,3 0,0 Z"
             style="fill:none;stroke:#231f20;stroke-width:1;stroke-linecap:butt;stroke-linejoin:miter;stroke-miterlimit:3.86400008;stroke-dasharray:none;stroke-opacity:1"
             id="path296"
             inkscape:connector-curvature="0" /></g><path
           d="m 406.651,532.054 11.496,0 0,-11.496 -11.496,0 0,11.496 z"
           style="fill:#ffffff;fill-opacity:1;fill-rule:nonzero;stroke:#231f20;stroke-width:1;stroke-linecap:butt;stroke-linejoin:miter;stroke-miterlimit:3.86400008;stroke-dasharray:none;stroke-opacity:1"
           id="path298"
           inkscape:connector-curvature="0" /><g
           id="g300"
           transform="translate(347.6635,541.6082)"><path
             d="M 0,0 71.216,0"
             style="fill:none;stroke:#231f20;stroke-width:2;stroke-linecap:butt;stroke-linejoin:miter;stroke-miterlimit:3.86400008;stroke-dasharray:none;stroke-opacity:1"
             id="path302"
             inkscape:connector-curvature="0" /></g><path
           d="m 377.821,612.388 11.496,0 0,-11.496 -11.496,0 0,11.496 z"
           style="fill:#ffffff;fill-opacity:1;fill-rule:nonzero;stroke:#231f20;stroke-width:1;stroke-linecap:butt;stroke-linejoin:miter;stroke-miterlimit:3.86400008;stroke-dasharray:none;stroke-opacity:1"
           id="path304"
           inkscape:connector-curvature="0" /><g
           id="g306"
           transform="translate(347.6635,621.1079)"><path
             d="M 0,0 71.216,0"
             style="fill:none;stroke:#231f20;stroke-width:2;stroke-linecap:butt;stroke-linejoin:miter;stroke-miterlimit:3.86400008;stroke-dasharray:none;stroke-opacity:1"
             id="path308"
             inkscape:connector-curvature="0" /></g><g
           id="g310"
           transform="translate(404.8798,666.7496)"><path
             d="m 0,0 0,-45.5 -42.622,0 0,45.5"
             style="fill:none;stroke:#231f20;stroke-width:1;stroke-linecap:butt;stroke-linejoin:miter;stroke-miterlimit:3.86400008;stroke-dasharray:none;stroke-opacity:1"
             id="path312"
             inkscape:connector-curvature="0" /></g><path
           d="m 356.51,656.498 11.496,0 0,-11.496 -11.496,0 0,11.496 z"
           style="fill:#ffffff;fill-opacity:1;fill-rule:nonzero;stroke:#231f20;stroke-width:1;stroke-linecap:butt;stroke-linejoin:miter;stroke-miterlimit:3.86400008;stroke-dasharray:none;stroke-opacity:1"
           id="path314"
           inkscape:connector-curvature="0" /><path
           d="m 399.457,656.498 11.496,0 0,-11.496 -11.496,0 0,11.496 z"
           style="fill:#ffffff;fill-opacity:1;fill-rule:nonzero;stroke:#231f20;stroke-width:1;stroke-linecap:butt;stroke-linejoin:miter;stroke-miterlimit:3.86400008;stroke-dasharray:none;stroke-opacity:1"
           id="path316"
           inkscape:connector-curvature="0" /><g
           id="g318"
           transform="translate(468.1102,589.4996)"><path
             d="M 0,0 0,-89.872"
             style="fill:none;stroke:#231f20;stroke-width:1;stroke-linecap:butt;stroke-linejoin:miter;stroke-miterlimit:3.86400008;stroke-dasharray:none;stroke-opacity:1"
             id="path320"
             inkscape:connector-curvature="0" /></g><g
           id="g322"
           transform="translate(468.1102,499.6278)"><path
             d="M 0,0 2,3 -2,3 0,0 Z"
             style="fill:#231f20;fill-opacity:1;fill-rule:nonzero;stroke:none"
             id="path324"
             inkscape:connector-curvature="0" /></g><g
           id="g326"
           transform="translate(468.1102,499.6278)"><path
             d="M 0,0 2,3 -2,3 0,0 Z"
             style="fill:none;stroke:#231f20;stroke-width:1;stroke-linecap:butt;stroke-linejoin:miter;stroke-miterlimit:3.86400008;stroke-dasharray:none;stroke-opacity:1"
             id="path328"
             inkscape:connector-curvature="0" /></g><path
           d="m 462.362,575.804 11.496,0 0,-11.496 -11.496,0 0,11.496 z"
           style="fill:#ffffff;fill-opacity:1;fill-rule:nonzero;stroke:#231f20;stroke-width:1;stroke-linecap:butt;stroke-linejoin:miter;stroke-miterlimit:3.86400008;stroke-dasharray:none;stroke-opacity:1"
           id="path330"
           inkscape:connector-curvature="0" /><g
           id="g332"
           transform="translate(526.366,589.4996)"><path
             d="M 0,0 0,-89.872"
             style="fill:none;stroke:#231f20;stroke-width:1;stroke-linecap:butt;stroke-linejoin:miter;stroke-miterlimit:3.86400008;stroke-dasharray:none;stroke-opacity:1"
             id="path334"
             inkscape:connector-curvature="0" /></g><g
           id="g336"
           transform="translate(526.366,499.6278)"><path
             d="M 0,0 2,3 -2,3 0,0 Z"
             style="fill:#231f20;fill-opacity:1;fill-rule:nonzero;stroke:none"
             id="path338"
             inkscape:connector-curvature="0" /></g><g
           id="g340"
           transform="translate(526.366,499.6278)"><path
             d="M 0,0 2,3 -2,3 0,0 Z"
             style="fill:none;stroke:#231f20;stroke-width:1;stroke-linecap:butt;stroke-linejoin:miter;stroke-miterlimit:3.86400008;stroke-dasharray:none;stroke-opacity:1"
             id="path342"
             inkscape:connector-curvature="0" /></g><path
           d="m 520.618,575.804 11.496,0 0,-11.496 -11.496,0 0,11.496 z"
           style="fill:#ffffff;fill-opacity:1;fill-rule:nonzero;stroke:#231f20;stroke-width:1;stroke-linecap:butt;stroke-linejoin:miter;stroke-miterlimit:3.86400008;stroke-dasharray:none;stroke-opacity:1"
           id="path344"
           inkscape:connector-curvature="0" /><g
           id="g346"
           transform="translate(461.6298,590.1261)"><path
             d="M 0,0 71.216,0"
             style="fill:none;stroke:#231f20;stroke-width:2;stroke-linecap:butt;stroke-linejoin:miter;stroke-miterlimit:3.86400008;stroke-dasharray:none;stroke-opacity:1"
             id="path348"
             inkscape:connector-curvature="0" /></g><text
           transform="matrix(1,0,0,-1,465.6087,566.8564)"
           style="font-variant:normal;font-weight:normal;font-stretch:condensed;font-size:9px;font-family:'HelveticaNeue Condensed';-inkscape-font-specification:HelveticaNeue-Condensed;writing-mode:lr-tb;fill:#231f20;fill-opacity:1;fill-rule:nonzero;stroke:none"
           id="text350"><tspan
             x="0 58.257"
             y="0"
             sodipodi:role="line"
             id="tspan352">DD</tspan></text>
<path
           d="m 484.596,543.863 25.284,0 0,-15.613 -25.284,0 0,15.613 z"
           style="fill:#ffffff;fill-opacity:1;fill-rule:nonzero;stroke:none"
           id="path354"
           inkscape:connector-curvature="0" /><path
           d="m 484.596,543.863 25.284,0 0,-15.613 -25.284,0 0,15.613 z"
           style="fill:none;stroke:#231f20;stroke-width:1;stroke-linecap:butt;stroke-linejoin:miter;stroke-miterlimit:3.86400008;stroke-dasharray:none;stroke-opacity:1"
           id="path356"
           inkscape:connector-curvature="0" /><g
           id="g358"
           transform="translate(523.3798,536.0563)"><path
             d="M 0,0 C 0,1.657 1.343,3 3,3 4.657,3 6,1.657 6,0 6,-1.657 4.657,-3 3,-3 1.343,-3 0,-1.657 0,0"
             style="fill:#231f20;fill-opacity:1;fill-rule:nonzero;stroke:none"
             id="path360"
             inkscape:connector-curvature="0" /></g><g
           id="g362"
           transform="translate(523.3798,536.0563)"><path
             d="M 0,0 C 0,1.657 1.343,3 3,3 4.657,3 6,1.657 6,0 6,-1.657 4.657,-3 3,-3 1.343,-3 0,-1.657 0,0 Z"
             style="fill:none;stroke:#231f20;stroke-width:1;stroke-linecap:butt;stroke-linejoin:miter;stroke-miterlimit:3.86400008;stroke-dasharray:none;stroke-opacity:1"
             id="path364"
             inkscape:connector-curvature="0" /></g><g
           id="g366"
           transform="translate(465.0961,536.0563)"><path
             d="M 0,0 C 0,1.657 1.343,3 3,3 4.657,3 6,1.657 6,0 6,-1.657 4.657,-3 3,-3 1.343,-3 0,-1.657 0,0"
             style="fill:#231f20;fill-opacity:1;fill-rule:nonzero;stroke:none"
             id="path368"
             inkscape:connector-curvature="0" /></g><g
           id="g370"
           transform="translate(465.0961,536.0563)"><path
             d="M 0,0 C 0,1.657 1.343,3 3,3 4.657,3 6,1.657 6,0 6,-1.657 4.657,-3 3,-3 1.343,-3 0,-1.657 0,0 Z"
             style="fill:none;stroke:#231f20;stroke-width:1;stroke-linecap:butt;stroke-linejoin:miter;stroke-miterlimit:3.86400008;stroke-dasharray:none;stroke-opacity:1"
             id="path372"
             inkscape:connector-curvature="0" /></g><text
           transform="matrix(1,0,0,-1,492.4861,532.8564)"
           style="font-variant:normal;font-weight:normal;font-stretch:condensed;font-size:9px;font-family:'HelveticaNeue Condensed';-inkscape-font-specification:HelveticaNeue-Condensed;writing-mode:lr-tb;fill:#231f20;fill-opacity:1;fill-rule:nonzero;stroke:none"
           id="text374"><tspan
             x="0 5.0040002"
             y="0"
             sodipodi:role="line"
             id="tspan376">NA</tspan><tspan
             x="-148.58099 -143.577 -78.821999 -73.818001"
             y="-113.643"
             sodipodi:role="line"
             id="tspan378">NFNA</tspan></text>
<text
           transform="matrix(1,0,0,-1,238.0291,483.7524)"
           style="font-variant:normal;font-weight:bold;font-stretch:condensed;font-size:9px;font-family:'HelveticaNeue Condensed';-inkscape-font-specification:HelveticaNeue-BoldCond;writing-mode:lr-tb;fill:#231f20;fill-opacity:1;fill-rule:nonzero;stroke:none"
           id="text380"><tspan
             x="0 2.664 6.993"
             y="0"
             sodipodi:role="line"
             id="tspan382">(a)</tspan></text>
<text
           transform="matrix(1,0,0,-1,249.8461,483.7524)"
           style="font-variant:normal;font-weight:normal;font-stretch:condensed;font-size:9px;font-family:'HelveticaNeue Condensed';-inkscape-font-specification:HelveticaNeue-Condensed;writing-mode:lr-tb;fill:#231f20;fill-opacity:1;fill-rule:nonzero;stroke:none"
           id="text384"><tspan
             x="0 4.671 8.6669998 11.331 13.995 17.990999 20.150999 23.813999 25.65 32.147999 36.314999 38.151001 42.146999"
             y="0"
             sodipodi:role="line"
             id="tspan386">Barra simples</tspan><tspan
             x="-7.0739999 -2.4030001 4.0949998 6.2550001 10.089 11.925 14.589 18.423 22.59 24.426001 26.757 30.753 32.912998 37.080002"
             y="9"
             sodipodi:role="line"
             id="tspan388">Um circuito de</tspan><tspan
             x="-1.7460001 1.9170001 6.0840001 10.251 12.915 14.751 21.249001 25.245001 29.412001 31.743"
             y="18"
             sodipodi:role="line"
             id="tspan390">suprimento</tspan></text>
<text
           transform="matrix(1,0,0,-1,354.2551,483.7524)"
           style="font-variant:normal;font-weight:bold;font-stretch:condensed;font-size:9px;font-family:'HelveticaNeue Condensed';-inkscape-font-specification:HelveticaNeue-BoldCond;writing-mode:lr-tb;fill:#231f20;fill-opacity:1;fill-rule:nonzero;stroke:none"
           id="text392"><tspan
             x="0 2.664 7.164"
             y="0"
             sodipodi:role="line"
             id="tspan394">(b)</tspan></text>
<text
           transform="matrix(1,0,0,-1,366.2431,483.7524)"
           style="font-variant:normal;font-weight:normal;font-stretch:condensed;font-size:9px;font-family:'HelveticaNeue Condensed';-inkscape-font-specification:HelveticaNeue-Condensed;writing-mode:lr-tb;fill:#231f20;fill-opacity:1;fill-rule:nonzero;stroke:none"
           id="text396"><tspan
             x="0 4.671 8.6669998 11.331 13.995 17.990999 20.150999 23.813999 25.65 32.147999 36.314999 38.151001 42.146999"
             y="0"
             sodipodi:role="line"
             id="tspan398">Barra simples</tspan><tspan
             x="-10.656 -5.652 -1.656 0.18000001 3.8429999 6.0029998 9.8369999 11.673 14.337 18.171 22.337999 24.174 26.504999 30.500999 34.164001 36.324001 40.491001"
             y="9"
             sodipodi:role="line"
             id="tspan400">Dois circuitos de</tspan><tspan
             x="-1.827 1.836 6.0029998 10.17 12.834 14.67 21.167999 25.164 29.330999 31.662001"
             y="18"
             sodipodi:role="line"
             id="tspan402">suprimento</tspan></text>
<text
           transform="matrix(1,0,0,-1,475.2871,483.7524)"
           style="font-variant:normal;font-weight:bold;font-stretch:condensed;font-size:9px;font-family:'HelveticaNeue Condensed';-inkscape-font-specification:HelveticaNeue-BoldCond;writing-mode:lr-tb;fill:#231f20;fill-opacity:1;fill-rule:nonzero;stroke:none"
           id="text404"><tspan
             x="0 2.664 6.8309999"
             y="0"
             sodipodi:role="line"
             id="tspan406">(c)</tspan></text>
<text
           transform="matrix(1,0,0,-1,486.9421,483.7524)"
           style="font-variant:normal;font-weight:normal;font-stretch:condensed;font-size:9px;font-family:'HelveticaNeue Condensed';-inkscape-font-specification:HelveticaNeue-Condensed;writing-mode:lr-tb;fill:#231f20;fill-opacity:1;fill-rule:nonzero;stroke:none"
           id="text408"><tspan
             x="0 4.5 8.4960003 10.332 14.499 18.495001 20.655001 24.822001 28.818001"
             y="0"
             sodipodi:role="line"
             id="tspan410">Saída dos</tspan><tspan
             x="-13.158 -9.1619997 -7.3260002 -5.4899998 1.008 5.0040002 9.1709995 11.502 15.498 19.665001 23.660999 26.325001 30.320999"
             y="9"
             sodipodi:role="line"
             id="tspan412">alimentadores</tspan></text>
<text
           transform="matrix(1,0,0,-1,481.6951,465.7524)"
           style="font-variant:normal;font-weight:normal;font-stretch:condensed;font-size:9px;font-family:'HelveticaNeue Condensed';-inkscape-font-specification:HelveticaNeue-Condensed;writing-mode:lr-tb;fill:#231f20;fill-opacity:1;fill-rule:nonzero;stroke:none"
           id="text414"><tspan
             x="0 4.1669998 6.8309999 8.6669998 15.165 19.160999 21.825001 23.660999 27.657"
             y="0"
             sodipodi:role="line"
             id="tspan416">primários</tspan></text>
</g></g><path
       d="m 219.425,458.919 325.734,0 0,213.799 -325.734,0 0,-213.799 z"
       style="fill:none;stroke:#231f20;stroke-width:0.5;stroke-linecap:butt;stroke-linejoin:miter;stroke-miterlimit:4;stroke-dasharray:none;stroke-opacity:1"
       id="path418"
       inkscape:connector-curvature="0" /></g></svg>