<?xml version="1.0" encoding="UTF-8" standalone="no"?>
<!-- Created with Inkscape (http://www.inkscape.org/) -->

<svg
   xmlns:dc="http://purl.org/dc/elements/1.1/"
   xmlns:cc="http://creativecommons.org/ns#"
   xmlns:rdf="http://www.w3.org/1999/02/22-rdf-syntax-ns#"
   xmlns:svg="http://www.w3.org/2000/svg"
   xmlns="http://www.w3.org/2000/svg"
   xmlns:sodipodi="http://sodipodi.sourceforge.net/DTD/sodipodi-0.dtd"
   xmlns:inkscape="http://www.inkscape.org/namespaces/inkscape"
   id="svg2"
   version="1.1"
   inkscape:version="0.91 r13725"
   xml:space="preserve"
   width="407.79251"
   height="267.87375"
   viewBox="0 0 407.79251 267.87375"
   sodipodi:docname="fig_7.svg"><metadata
     id="metadata8"><rdf:RDF><cc:Work
         rdf:about=""><dc:format>image/svg+xml</dc:format><dc:type
           rdf:resource="http://purl.org/dc/dcmitype/StillImage" /><dc:title></dc:title></cc:Work></rdf:RDF></metadata><defs
     id="defs6"><clipPath
       clipPathUnits="userSpaceOnUse"
       id="clipPath16"><path
         d="m 21,21 581.103,0 0,722.835 L 21,743.835 21,21 Z"
         id="path18"
         inkscape:connector-curvature="0" /></clipPath><clipPath
       clipPathUnits="userSpaceOnUse"
       id="clipPath28"><path
         d="m 559.583,695.645 -141.732,0 0,2.835 141.732,0 0,-2.835 z"
         id="path30"
         inkscape:connector-curvature="0" /></clipPath><linearGradient
       x1="0"
       y1="0"
       x2="1"
       y2="0"
       gradientUnits="userSpaceOnUse"
       gradientTransform="matrix(-141.73228,0,0,-141.73228,559.5827,695.64536)"
       spreadMethod="pad"
       id="linearGradient36"><stop
         style="stop-opacity:1;stop-color:#231f20"
         offset="0"
         id="stop38" /><stop
         style="stop-opacity:1;stop-color:#ffffff"
         offset="1"
         id="stop40" /></linearGradient><clipPath
       clipPathUnits="userSpaceOnUse"
       id="clipPath48"><path
         d="m 403.677,695.645 -325.984,0 0,2.835 325.984,0 0,-2.835 z"
         id="path50"
         inkscape:connector-curvature="0" /></clipPath><linearGradient
       x1="0"
       y1="0"
       x2="1"
       y2="0"
       gradientUnits="userSpaceOnUse"
       gradientTransform="matrix(-325.98425,0,0,-325.98425,403.67719,695.64536)"
       spreadMethod="pad"
       id="linearGradient56"><stop
         style="stop-opacity:1;stop-color:#231f20"
         offset="0"
         id="stop58" /><stop
         style="stop-opacity:1;stop-color:#ffffff"
         offset="1"
         id="stop60" /></linearGradient><clipPath
       clipPathUnits="userSpaceOnUse"
       id="clipPath68"><path
         d="m 21,21 581.102,0 0,722.835 L 21,743.835 21,21 Z"
         id="path70"
         inkscape:connector-curvature="0" /></clipPath><clipPath
       clipPathUnits="userSpaceOnUse"
       id="clipPath136"><path
         d="m 149.193,288.721 132,0 0,59 -132,0 0,-59 z"
         id="path138"
         inkscape:connector-curvature="0" /></clipPath><clipPath
       clipPathUnits="userSpaceOnUse"
       id="clipPath144"><path
         d="m 149.193,288.912 132,0 0,58.81 -132,0 0,-58.81 z"
         id="path146"
         inkscape:connector-curvature="0" /></clipPath><clipPath
       clipPathUnits="userSpaceOnUse"
       id="clipPath260"><path
         d="m 21,21 581.102,0 0,722.835 L 21,743.835 21,21 Z"
         id="path262"
         inkscape:connector-curvature="0" /></clipPath><clipPath
       clipPathUnits="userSpaceOnUse"
       id="clipPath300"><path
         d="m 148.193,112.879 143,0 0,33.999 -143,0 0,-33.999 z"
         id="path302"
         inkscape:connector-curvature="0" /></clipPath><clipPath
       clipPathUnits="userSpaceOnUse"
       id="clipPath336"><path
         d="m 21,21 581.102,0 0,722.835 L 21,743.835 21,21 Z"
         id="path338"
         inkscape:connector-curvature="0" /></clipPath><clipPath
       clipPathUnits="userSpaceOnUse"
       id="clipPath368"><path
         d="m 77.943,458.919 325.734,0 0,213.799 -325.734,0 0,-213.799 z"
         id="path370"
         inkscape:connector-curvature="0" /></clipPath><clipPath
       clipPathUnits="userSpaceOnUse"
       id="clipPath634"><path
         d="m 0,0 623.102,0 0,764.835 L 0,764.835 0,0 Z"
         id="path636"
         inkscape:connector-curvature="0" /></clipPath></defs><sodipodi:namedview
     pagecolor="#ffffff"
     bordercolor="#666666"
     borderopacity="1"
     objecttolerance="10"
     gridtolerance="10"
     guidetolerance="10"
     inkscape:pageopacity="0"
     inkscape:pageshadow="2"
     inkscape:window-width="1366"
     inkscape:window-height="711"
     id="namedview4"
     showgrid="false"
     fit-margin-top="0"
     fit-margin-left="0"
     fit-margin-right="0"
     fit-margin-bottom="0"
     inkscape:zoom="1.4653715"
     inkscape:cx="291.60279"
     inkscape:cy="155.99098"
     inkscape:window-x="0"
     inkscape:window-y="27"
     inkscape:window-maximized="1"
     inkscape:current-layer="g10" /><g
     id="g10"
     inkscape:groupmode="layer"
     inkscape:label="Kagan_Cap1"
     transform="matrix(1.25,0,0,-1.25,-97.11625,841.21)"><g
       id="g132"><g
         id="g134"
         clip-path="url(#clipPath136)" /></g><g
       id="g364"><g
         id="g366"
         clip-path="url(#clipPath368)"><g
           id="g372"
           transform="translate(314.4662,536.0563)"><path
             d="M 0,0 58.284,0 M -184.35,34.768 c 0,3.906 3.167,7.073 7.073,7.073 3.905,0 7.072,-3.167 7.072,-7.073 0,-3.906 -3.167,-7.072 -7.072,-7.072 -3.906,0 -7.073,3.166 -7.073,7.072 z m 0,7.073 c 0,3.906 3.167,7.072 7.073,7.072 3.905,0 7.072,-3.166 7.072,-7.072 0,-3.906 -3.167,-7.073 -7.072,-7.073 -3.906,0 -7.073,3.167 -7.073,7.073 z m 7.073,-14.128 0,-21.848 m 0,43.63 0,81.948 m -29.425,-126.518 0,-41.353"
             style="fill:none;stroke:#231f20;stroke-width:1;stroke-linecap:butt;stroke-linejoin:miter;stroke-miterlimit:3.86400008;stroke-dasharray:none;stroke-opacity:1"
             id="path374"
             inkscape:connector-curvature="0" /></g><g
           id="g376"
           transform="translate(107.764,499.6278)"><path
             d="M 0,0 2,3 -2,3 0,0 Z"
             style="fill:#231f20;fill-opacity:1;fill-rule:nonzero;stroke:none"
             id="path378"
             inkscape:connector-curvature="0" /></g><g
           id="g380"
           transform="translate(107.764,499.6278)"><path
             d="M 0,0 2,3 -2,3 0,0 Z"
             style="fill:none;stroke:#231f20;stroke-width:1;stroke-linecap:butt;stroke-linejoin:miter;stroke-miterlimit:3.86400008;stroke-dasharray:none;stroke-opacity:1"
             id="path382"
             inkscape:connector-curvature="0" /></g><path
           d="m 102.016,532.054 11.496,0 0,-11.496 -11.496,0 0,11.496 z"
           style="fill:#ffffff;fill-opacity:1;fill-rule:nonzero;stroke:#231f20;stroke-width:1;stroke-linecap:butt;stroke-linejoin:miter;stroke-miterlimit:3.86400008;stroke-dasharray:none;stroke-opacity:1"
           id="path384"
           inkscape:connector-curvature="0" /><g
           id="g386"
           transform="translate(127.1825,540.9817)"><path
             d="M 0,0 0,-41.354"
             style="fill:none;stroke:#231f20;stroke-width:1;stroke-linecap:butt;stroke-linejoin:miter;stroke-miterlimit:3.86400008;stroke-dasharray:none;stroke-opacity:1"
             id="path388"
             inkscape:connector-curvature="0" /></g><g
           id="g390"
           transform="translate(127.1825,499.6278)"><path
             d="M 0,0 2,3 -2,3 0,0 Z"
             style="fill:#231f20;fill-opacity:1;fill-rule:nonzero;stroke:none"
             id="path392"
             inkscape:connector-curvature="0" /></g><g
           id="g394"
           transform="translate(127.1825,499.6278)"><path
             d="M 0,0 2,3 -2,3 0,0 Z"
             style="fill:none;stroke:#231f20;stroke-width:1;stroke-linecap:butt;stroke-linejoin:miter;stroke-miterlimit:3.86400008;stroke-dasharray:none;stroke-opacity:1"
             id="path396"
             inkscape:connector-curvature="0" /></g><path
           d="m 121.434,532.054 11.496,0 0,-11.496 -11.496,0 0,11.496 z"
           style="fill:#ffffff;fill-opacity:1;fill-rule:nonzero;stroke:#231f20;stroke-width:1;stroke-linecap:butt;stroke-linejoin:miter;stroke-miterlimit:3.86400008;stroke-dasharray:none;stroke-opacity:1"
           id="path398"
           inkscape:connector-curvature="0" /><g
           id="g400"
           transform="translate(146.6009,540.9817)"><path
             d="M 0,0 0,-41.354"
             style="fill:none;stroke:#231f20;stroke-width:1;stroke-linecap:butt;stroke-linejoin:miter;stroke-miterlimit:3.86400008;stroke-dasharray:none;stroke-opacity:1"
             id="path402"
             inkscape:connector-curvature="0" /></g><g
           id="g404"
           transform="translate(146.6009,499.6278)"><path
             d="M 0,0 2,3 -2,3 0,0 Z"
             style="fill:#231f20;fill-opacity:1;fill-rule:nonzero;stroke:none"
             id="path406"
             inkscape:connector-curvature="0" /></g><g
           id="g408"
           transform="translate(146.6009,499.6278)"><path
             d="M 0,0 2,3 -2,3 0,0 Z"
             style="fill:none;stroke:#231f20;stroke-width:1;stroke-linecap:butt;stroke-linejoin:miter;stroke-miterlimit:3.86400008;stroke-dasharray:none;stroke-opacity:1"
             id="path410"
             inkscape:connector-curvature="0" /></g><path
           d="m 140.853,532.054 11.496,0 0,-11.496 -11.496,0 0,11.496 z"
           style="fill:#ffffff;fill-opacity:1;fill-rule:nonzero;stroke:#231f20;stroke-width:1;stroke-linecap:butt;stroke-linejoin:miter;stroke-miterlimit:3.86400008;stroke-dasharray:none;stroke-opacity:1"
           id="path412"
           inkscape:connector-curvature="0" /><g
           id="g414"
           transform="translate(166.0195,540.9817)"><path
             d="M 0,0 0,-41.354"
             style="fill:none;stroke:#231f20;stroke-width:1;stroke-linecap:butt;stroke-linejoin:miter;stroke-miterlimit:3.86400008;stroke-dasharray:none;stroke-opacity:1"
             id="path416"
             inkscape:connector-curvature="0" /></g><g
           id="g418"
           transform="translate(166.0195,499.6278)"><path
             d="M 0,0 2,3 -2,3 0,0 Z"
             style="fill:#231f20;fill-opacity:1;fill-rule:nonzero;stroke:none"
             id="path420"
             inkscape:connector-curvature="0" /></g><g
           id="g422"
           transform="translate(166.0195,499.6278)"><path
             d="M 0,0 2,3 -2,3 0,0 Z"
             style="fill:none;stroke:#231f20;stroke-width:1;stroke-linecap:butt;stroke-linejoin:miter;stroke-miterlimit:3.86400008;stroke-dasharray:none;stroke-opacity:1"
             id="path424"
             inkscape:connector-curvature="0" /></g><path
           d="m 160.271,532.054 11.496,0 0,-11.496 -11.496,0 0,11.496 z"
           style="fill:#ffffff;fill-opacity:1;fill-rule:nonzero;stroke:#231f20;stroke-width:1;stroke-linecap:butt;stroke-linejoin:miter;stroke-miterlimit:3.86400008;stroke-dasharray:none;stroke-opacity:1"
           id="path426"
           inkscape:connector-curvature="0" /><g
           id="g428"
           transform="translate(101.2836,541.6082)"><path
             d="M 0,0 68.216,0 78.608,10.391"
             style="fill:none;stroke:#231f20;stroke-width:2;stroke-linecap:butt;stroke-linejoin:miter;stroke-miterlimit:3.86400008;stroke-dasharray:none;stroke-opacity:1"
             id="path430"
             inkscape:connector-curvature="0" /></g><path
           d="m 131.441,601.389 11.496,0 0,-11.496 -11.496,0 0,11.496 z"
           style="fill:#ffffff;fill-opacity:1;fill-rule:nonzero;stroke:#231f20;stroke-width:1;stroke-linecap:butt;stroke-linejoin:miter;stroke-miterlimit:3.86400008;stroke-dasharray:none;stroke-opacity:1"
           id="path432"
           inkscape:connector-curvature="0" /><g
           id="g434"
           transform="translate(101.2836,610.108)"><path
             d="M 0,0 71.216,0"
             style="fill:none;stroke:#231f20;stroke-width:2;stroke-linecap:butt;stroke-linejoin:miter;stroke-miterlimit:3.86400008;stroke-dasharray:none;stroke-opacity:1"
             id="path436"
             inkscape:connector-curvature="0" /></g><path
           d="m 131.441,654.5 11.496,0 0,-11.496 -11.496,0 0,11.496 z"
           style="fill:#ffffff;fill-opacity:1;fill-rule:nonzero;stroke:#231f20;stroke-width:1;stroke-linecap:butt;stroke-linejoin:miter;stroke-miterlimit:3.86400008;stroke-dasharray:none;stroke-opacity:1"
           id="path438"
           inkscape:connector-curvature="0" /><g
           id="g440"
           transform="translate(207.8664,570.8246)"><path
             d="m 0,0 c 0,3.906 3.166,7.073 7.072,7.073 3.906,0 7.073,-3.167 7.073,-7.073 0,-3.906 -3.167,-7.072 -7.073,-7.072 C 3.166,-7.072 0,-3.906 0,0 Z m 0,7.073 c 0,3.905 3.166,7.072 7.072,7.072 3.906,0 7.073,-3.167 7.073,-7.072 C 14.145,3.166 10.978,0 7.072,0 3.166,0 0,3.166 0,7.073 Z m 7.072,-14.128 0,-21.848 m 0,43.63 0,81.948 m -29.424,-126.518 0,-41.354"
             style="fill:none;stroke:#231f20;stroke-width:1;stroke-linecap:butt;stroke-linejoin:miter;stroke-miterlimit:3.86400008;stroke-dasharray:none;stroke-opacity:1"
             id="path442"
             inkscape:connector-curvature="0" /></g><g
           id="g444"
           transform="translate(185.5141,499.6278)"><path
             d="M 0,0 2,3 -2,3 0,0 Z"
             style="fill:#231f20;fill-opacity:1;fill-rule:nonzero;stroke:none"
             id="path446"
             inkscape:connector-curvature="0" /></g><g
           id="g448"
           transform="translate(185.5141,499.6278)"><path
             d="M 0,0 2,3 -2,3 0,0 Z"
             style="fill:none;stroke:#231f20;stroke-width:1;stroke-linecap:butt;stroke-linejoin:miter;stroke-miterlimit:3.86400008;stroke-dasharray:none;stroke-opacity:1"
             id="path450"
             inkscape:connector-curvature="0" /></g><path
           d="m 179.766,532.054 11.496,0 0,-11.496 -11.496,0 0,11.496 z"
           style="fill:#ffffff;fill-opacity:1;fill-rule:nonzero;stroke:#231f20;stroke-width:1;stroke-linecap:butt;stroke-linejoin:miter;stroke-miterlimit:3.86400008;stroke-dasharray:none;stroke-opacity:1"
           id="path452"
           inkscape:connector-curvature="0" /><g
           id="g454"
           transform="translate(204.9325,540.9817)"><path
             d="M 0,0 0,-41.354"
             style="fill:none;stroke:#231f20;stroke-width:1;stroke-linecap:butt;stroke-linejoin:miter;stroke-miterlimit:3.86400008;stroke-dasharray:none;stroke-opacity:1"
             id="path456"
             inkscape:connector-curvature="0" /></g><g
           id="g458"
           transform="translate(204.9325,499.6278)"><path
             d="M 0,0 2,3 -2,3 0,0 Z"
             style="fill:#231f20;fill-opacity:1;fill-rule:nonzero;stroke:none"
             id="path460"
             inkscape:connector-curvature="0" /></g><g
           id="g462"
           transform="translate(204.9325,499.6278)"><path
             d="M 0,0 2,3 -2,3 0,0 Z"
             style="fill:none;stroke:#231f20;stroke-width:1;stroke-linecap:butt;stroke-linejoin:miter;stroke-miterlimit:3.86400008;stroke-dasharray:none;stroke-opacity:1"
             id="path464"
             inkscape:connector-curvature="0" /></g><path
           d="m 199.184,532.054 11.496,0 0,-11.496 -11.496,0 0,11.496 z"
           style="fill:#ffffff;fill-opacity:1;fill-rule:nonzero;stroke:#231f20;stroke-width:1;stroke-linecap:butt;stroke-linejoin:miter;stroke-miterlimit:3.86400008;stroke-dasharray:none;stroke-opacity:1"
           id="path466"
           inkscape:connector-curvature="0" /><g
           id="g468"
           transform="translate(224.351,540.9817)"><path
             d="M 0,0 0,-41.354"
             style="fill:none;stroke:#231f20;stroke-width:1;stroke-linecap:butt;stroke-linejoin:miter;stroke-miterlimit:3.86400008;stroke-dasharray:none;stroke-opacity:1"
             id="path470"
             inkscape:connector-curvature="0" /></g><g
           id="g472"
           transform="translate(224.351,499.6278)"><path
             d="M 0,0 2,3 -2,3 0,0 Z"
             style="fill:#231f20;fill-opacity:1;fill-rule:nonzero;stroke:none"
             id="path474"
             inkscape:connector-curvature="0" /></g><g
           id="g476"
           transform="translate(224.351,499.6278)"><path
             d="M 0,0 2,3 -2,3 0,0 Z"
             style="fill:none;stroke:#231f20;stroke-width:1;stroke-linecap:butt;stroke-linejoin:miter;stroke-miterlimit:3.86400008;stroke-dasharray:none;stroke-opacity:1"
             id="path478"
             inkscape:connector-curvature="0" /></g><path
           d="m 218.603,532.054 11.496,0 0,-11.496 -11.496,0 0,11.496 z"
           style="fill:#ffffff;fill-opacity:1;fill-rule:nonzero;stroke:#231f20;stroke-width:1;stroke-linecap:butt;stroke-linejoin:miter;stroke-miterlimit:3.86400008;stroke-dasharray:none;stroke-opacity:1"
           id="path480"
           inkscape:connector-curvature="0" /><g
           id="g482"
           transform="translate(243.7694,540.9817)"><path
             d="M 0,0 0,-41.354"
             style="fill:none;stroke:#231f20;stroke-width:1;stroke-linecap:butt;stroke-linejoin:miter;stroke-miterlimit:3.86400008;stroke-dasharray:none;stroke-opacity:1"
             id="path484"
             inkscape:connector-curvature="0" /></g><g
           id="g486"
           transform="translate(243.7694,499.6278)"><path
             d="M 0,0 2,3 -2,3 0,0 Z"
             style="fill:#231f20;fill-opacity:1;fill-rule:nonzero;stroke:none"
             id="path488"
             inkscape:connector-curvature="0" /></g><g
           id="g490"
           transform="translate(243.7694,499.6278)"><path
             d="M 0,0 2,3 -2,3 0,0 Z"
             style="fill:none;stroke:#231f20;stroke-width:1;stroke-linecap:butt;stroke-linejoin:miter;stroke-miterlimit:3.86400008;stroke-dasharray:none;stroke-opacity:1"
             id="path492"
             inkscape:connector-curvature="0" /></g><path
           d="m 238.021,532.054 11.496,0 0,-11.496 -11.496,0 0,11.496 z"
           style="fill:#ffffff;fill-opacity:1;fill-rule:nonzero;stroke:#231f20;stroke-width:1;stroke-linecap:butt;stroke-linejoin:miter;stroke-miterlimit:3.86400008;stroke-dasharray:none;stroke-opacity:1"
           id="path494"
           inkscape:connector-curvature="0" /><g
           id="g496"
           transform="translate(182.0336,541.6082)"><path
             d="M 0,0 68.216,0"
             style="fill:none;stroke:#231f20;stroke-width:2;stroke-linecap:butt;stroke-linejoin:miter;stroke-miterlimit:3.86400008;stroke-dasharray:none;stroke-opacity:1"
             id="path498"
             inkscape:connector-curvature="0" /></g><path
           d="m 209.191,601.389 11.496,0 0,-11.496 -11.496,0 0,11.496 z"
           style="fill:#ffffff;fill-opacity:1;fill-rule:nonzero;stroke:#231f20;stroke-width:1;stroke-linecap:butt;stroke-linejoin:miter;stroke-miterlimit:3.86400008;stroke-dasharray:none;stroke-opacity:1"
           id="path500"
           inkscape:connector-curvature="0" /><g
           id="g502"
           transform="translate(179.0336,610.108)"><path
             d="M 0,0 71.216,0"
             style="fill:none;stroke:#231f20;stroke-width:2;stroke-linecap:butt;stroke-linejoin:miter;stroke-miterlimit:3.86400008;stroke-dasharray:none;stroke-opacity:1"
             id="path504"
             inkscape:connector-curvature="0" /></g><g
           id="g506"
           transform="translate(314.4803,589.4996)"><path
             d="M 0,0 0,-89.872"
             style="fill:none;stroke:#231f20;stroke-width:1;stroke-linecap:butt;stroke-linejoin:miter;stroke-miterlimit:3.86400008;stroke-dasharray:none;stroke-opacity:1"
             id="path508"
             inkscape:connector-curvature="0" /></g><g
           id="g510"
           transform="translate(314.4803,499.6278)"><path
             d="M 0,0 2,3 -2,3 0,0 Z"
             style="fill:#231f20;fill-opacity:1;fill-rule:nonzero;stroke:none"
             id="path512"
             inkscape:connector-curvature="0" /></g><g
           id="g514"
           transform="translate(314.4803,499.6278)"><path
             d="M 0,0 2,3 -2,3 0,0 Z"
             style="fill:none;stroke:#231f20;stroke-width:1;stroke-linecap:butt;stroke-linejoin:miter;stroke-miterlimit:3.86400008;stroke-dasharray:none;stroke-opacity:1"
             id="path516"
             inkscape:connector-curvature="0" /></g><path
           d="m 308.732,575.804 11.496,0 0,-11.496 -11.496,0 0,11.496 z"
           style="fill:#ffffff;fill-opacity:1;fill-rule:nonzero;stroke:#231f20;stroke-width:1;stroke-linecap:butt;stroke-linejoin:miter;stroke-miterlimit:3.86400008;stroke-dasharray:none;stroke-opacity:1"
           id="path518"
           inkscape:connector-curvature="0" /><g
           id="g520"
           transform="translate(372.7361,589.4996)"><path
             d="M 0,0 0,-89.872"
             style="fill:none;stroke:#231f20;stroke-width:1;stroke-linecap:butt;stroke-linejoin:miter;stroke-miterlimit:3.86400008;stroke-dasharray:none;stroke-opacity:1"
             id="path522"
             inkscape:connector-curvature="0" /></g><g
           id="g524"
           transform="translate(372.7361,499.6278)"><path
             d="M 0,0 2,3 -2,3 0,0 Z"
             style="fill:#231f20;fill-opacity:1;fill-rule:nonzero;stroke:none"
             id="path526"
             inkscape:connector-curvature="0" /></g><g
           id="g528"
           transform="translate(372.7361,499.6278)"><path
             d="M 0,0 2,3 -2,3 0,0 Z"
             style="fill:none;stroke:#231f20;stroke-width:1;stroke-linecap:butt;stroke-linejoin:miter;stroke-miterlimit:3.86400008;stroke-dasharray:none;stroke-opacity:1"
             id="path530"
             inkscape:connector-curvature="0" /></g><path
           d="m 366.988,575.804 11.496,0 0,-11.496 -11.496,0 0,11.496 z"
           style="fill:#ffffff;fill-opacity:1;fill-rule:nonzero;stroke:#231f20;stroke-width:1;stroke-linecap:butt;stroke-linejoin:miter;stroke-miterlimit:3.86400008;stroke-dasharray:none;stroke-opacity:1"
           id="path532"
           inkscape:connector-curvature="0" /><g
           id="g534"
           transform="translate(307.9999,590.1261)"><path
             d="M 0,0 71.216,0"
             style="fill:none;stroke:#231f20;stroke-width:2;stroke-linecap:butt;stroke-linejoin:miter;stroke-miterlimit:3.86400008;stroke-dasharray:none;stroke-opacity:1"
             id="path536"
             inkscape:connector-curvature="0" /></g><text
           transform="matrix(1,0,0,-1,311.9788,566.8564)"
           style="font-variant:normal;font-weight:normal;font-stretch:condensed;font-size:9px;font-family:'HelveticaNeue Condensed';-inkscape-font-specification:HelveticaNeue-Condensed;writing-mode:lr-tb;fill:#231f20;fill-opacity:1;fill-rule:nonzero;stroke:none"
           id="text538"><tspan
             x="0 58.257"
             y="0"
             sodipodi:role="line"
             id="tspan540">DD</tspan></text>
<path
           d="m 330.966,543.863 25.284,0 0,-15.613 -25.284,0 0,15.613 z"
           style="fill:#ffffff;fill-opacity:1;fill-rule:nonzero;stroke:none"
           id="path542"
           inkscape:connector-curvature="0" /><path
           d="m 330.966,543.863 25.284,0 0,-15.613 -25.284,0 0,15.613 z"
           style="fill:none;stroke:#231f20;stroke-width:1;stroke-linecap:butt;stroke-linejoin:miter;stroke-miterlimit:3.86400008;stroke-dasharray:none;stroke-opacity:1"
           id="path544"
           inkscape:connector-curvature="0" /><g
           id="g546"
           transform="translate(369.7499,536.0563)"><path
             d="M 0,0 C 0,1.657 1.343,3 3,3 4.657,3 6,1.657 6,0 6,-1.657 4.657,-3 3,-3 1.343,-3 0,-1.657 0,0"
             style="fill:#231f20;fill-opacity:1;fill-rule:nonzero;stroke:none"
             id="path548"
             inkscape:connector-curvature="0" /></g><g
           id="g550"
           transform="translate(369.7499,536.0563)"><path
             d="M 0,0 C 0,1.657 1.343,3 3,3 4.657,3 6,1.657 6,0 6,-1.657 4.657,-3 3,-3 1.343,-3 0,-1.657 0,0 Z"
             style="fill:none;stroke:#231f20;stroke-width:1;stroke-linecap:butt;stroke-linejoin:miter;stroke-miterlimit:3.86400008;stroke-dasharray:none;stroke-opacity:1"
             id="path552"
             inkscape:connector-curvature="0" /></g><g
           id="g554"
           transform="translate(311.4662,536.0563)"><path
             d="M 0,0 C 0,1.657 1.343,3 3,3 4.657,3 6,1.657 6,0 6,-1.657 4.657,-3 3,-3 1.343,-3 0,-1.657 0,0"
             style="fill:#231f20;fill-opacity:1;fill-rule:nonzero;stroke:none"
             id="path556"
             inkscape:connector-curvature="0" /></g><g
           id="g558"
           transform="translate(311.4662,536.0563)"><path
             d="M 0,0 C 0,1.657 1.343,3 3,3 4.657,3 6,1.657 6,0 6,-1.657 4.657,-3 3,-3 1.343,-3 0,-1.657 0,0 Z"
             style="fill:none;stroke:#231f20;stroke-width:1;stroke-linecap:butt;stroke-linejoin:miter;stroke-miterlimit:3.86400008;stroke-dasharray:none;stroke-opacity:1"
             id="path560"
             inkscape:connector-curvature="0" /></g><text
           transform="matrix(1,0,0,-1,338.8563,532.8564)"
           style="font-variant:normal;font-weight:normal;font-stretch:condensed;font-size:9px;font-family:'HelveticaNeue Condensed';-inkscape-font-specification:HelveticaNeue-Condensed;writing-mode:lr-tb;fill:#231f20;fill-opacity:1;fill-rule:nonzero;stroke:none"
           id="text562"><tspan
             x="0 5.0040002"
             y="0"
             sodipodi:role="line"
             id="tspan564">NA</tspan></text>
<text
           transform="matrix(1,0,0,-1,146.1753,483.7524)"
           style="font-variant:normal;font-weight:bold;font-stretch:condensed;font-size:9px;font-family:'HelveticaNeue Condensed';-inkscape-font-specification:HelveticaNeue-BoldCond;writing-mode:lr-tb;fill:#231f20;fill-opacity:1;fill-rule:nonzero;stroke:none"
           id="text566"><tspan
             x="0 2.664 6.993"
             y="0"
             sodipodi:role="line"
             id="tspan568">(a)</tspan></text>
<text
           transform="matrix(1,0,0,-1,157.9923,483.7524)"
           style="font-variant:normal;font-weight:normal;font-stretch:condensed;font-size:9px;font-family:'HelveticaNeue Condensed';-inkscape-font-specification:HelveticaNeue-Condensed;writing-mode:lr-tb;fill:#231f20;fill-opacity:1;fill-rule:nonzero;stroke:none"
           id="text570"><tspan
             x="0 4.671 8.6669998 11.331 13.995 17.990999 20.150999 23.813999 25.65 32.147999 36.314999 38.151001 42.146999"
             y="0"
             sodipodi:role="line"
             id="tspan572">Barra simples</tspan></text>
<text
           transform="matrix(1,0,0,-1,156.2463,474.7524)"
           style="font-variant:normal;font-weight:normal;font-stretch:condensed;font-size:9px;font-family:'HelveticaNeue Condensed';-inkscape-font-specification:HelveticaNeue-Condensed;writing-mode:lr-tb;fill:#231f20;fill-opacity:1;fill-rule:nonzero;stroke:none"
           id="text574"><tspan
             x="0 3.6630001 7.6589999 11.493 15.327 17.163 21.159 25.326 29.322001 33.488998"
             y="0"
             sodipodi:role="line"
             id="tspan576">seccionada</tspan></text>
<text
           transform="matrix(1,0,0,-1,321.4953,483.7524)"
           style="font-variant:normal;font-weight:bold;font-stretch:condensed;font-size:9px;font-family:'HelveticaNeue Condensed';-inkscape-font-specification:HelveticaNeue-BoldCond;writing-mode:lr-tb;fill:#231f20;fill-opacity:1;fill-rule:nonzero;stroke:none"
           id="text578"><tspan
             x="0 2.664 7.164"
             y="0"
             sodipodi:role="line"
             id="tspan580">(b)</tspan></text>
<text
           transform="matrix(1,0,0,-1,333.4833,483.7524)"
           style="font-variant:normal;font-weight:normal;font-stretch:condensed;font-size:9px;font-family:'HelveticaNeue Condensed';-inkscape-font-specification:HelveticaNeue-Condensed;writing-mode:lr-tb;fill:#231f20;fill-opacity:1;fill-rule:nonzero;stroke:none"
           id="text582"><tspan
             x="0 4.5 8.4960003 10.332 14.499 18.495001 20.655001 24.822001 28.818001"
             y="0"
             sodipodi:role="line"
             id="tspan584">Saída dos</tspan><tspan
             x="-13.32 -9.3240004 -7.4879999 -5.652 0.84600002 4.842 9.0089998 11.34 15.336 19.503 23.499001 26.163 30.159"
             y="9"
             sodipodi:role="line"
             id="tspan586">alimentadores</tspan></text>
<text
           transform="matrix(1,0,0,-1,328.0743,465.7524)"
           style="font-variant:normal;font-weight:normal;font-stretch:condensed;font-size:9px;font-family:'HelveticaNeue Condensed';-inkscape-font-specification:HelveticaNeue-Condensed;writing-mode:lr-tb;fill:#231f20;fill-opacity:1;fill-rule:nonzero;stroke:none"
           id="text588"><tspan
             x="0 4.1669998 6.8309999 8.6669998 15.165 19.160999 21.825001 23.660999 27.657"
             y="0"
             sodipodi:role="line"
             id="tspan590">primários</tspan></text>
<path
           d="m 209.191,654.5 11.496,0 0,-11.496 -11.496,0 0,11.496 z"
           style="fill:#ffffff;fill-opacity:1;fill-rule:nonzero;stroke:none"
           id="path592"
           inkscape:connector-curvature="0" /><path
           d="m 209.191,654.5 11.496,0 0,-11.496 -11.496,0 0,11.496 z"
           style="fill:none;stroke:#231f20;stroke-width:1;stroke-linecap:butt;stroke-linejoin:miter;stroke-miterlimit:3.86400008;stroke-dasharray:none;stroke-opacity:1"
           id="path594"
           inkscape:connector-curvature="0" /><g
           id="g596"
           transform="translate(137,627.5563)"><path
             d="M 0,0 77.5,0"
             style="fill:none;stroke:#231f20;stroke-width:1;stroke-linecap:butt;stroke-linejoin:miter;stroke-miterlimit:3.86400008;stroke-dasharray:none;stroke-opacity:1"
             id="path598"
             inkscape:connector-curvature="0" /></g><path
           d="m 163.466,635.363 25.284,0 0,-15.613 -25.284,0 0,15.613 z"
           style="fill:#ffffff;fill-opacity:1;fill-rule:nonzero;stroke:#231f20;stroke-width:1;stroke-linecap:butt;stroke-linejoin:miter;stroke-miterlimit:3.86400008;stroke-dasharray:none;stroke-opacity:1"
           id="path600"
           inkscape:connector-curvature="0" /><g
           id="g602"
           transform="translate(211.4999,627.5563)"><path
             d="M 0,0 C 0,1.657 1.343,3 3,3 4.657,3 6,1.657 6,0 6,-1.657 4.657,-3 3,-3 1.343,-3 0,-1.657 0,0"
             style="fill:#231f20;fill-opacity:1;fill-rule:nonzero;stroke:none"
             id="path604"
             inkscape:connector-curvature="0" /></g><g
           id="g606"
           transform="translate(211.4999,627.5563)"><path
             d="M 0,0 C 0,1.657 1.343,3 3,3 4.657,3 6,1.657 6,0 6,-1.657 4.657,-3 3,-3 1.343,-3 0,-1.657 0,0 Z"
             style="fill:none;stroke:#231f20;stroke-width:1;stroke-linecap:butt;stroke-linejoin:miter;stroke-miterlimit:3.86400008;stroke-dasharray:none;stroke-opacity:1"
             id="path608"
             inkscape:connector-curvature="0" /></g><g
           id="g610"
           transform="translate(134,627.5563)"><path
             d="M 0,0 C 0,1.657 1.343,3 3,3 4.657,3 6,1.657 6,0 6,-1.657 4.657,-3 3,-3 1.343,-3 0,-1.657 0,0"
             style="fill:#231f20;fill-opacity:1;fill-rule:nonzero;stroke:none"
             id="path612"
             inkscape:connector-curvature="0" /></g><g
           id="g614"
           transform="translate(134,627.5563)"><path
             d="M 0,0 C 0,1.657 1.343,3 3,3 4.657,3 6,1.657 6,0 6,-1.657 4.657,-3 3,-3 1.343,-3 0,-1.657 0,0 Z"
             style="fill:none;stroke:#231f20;stroke-width:1;stroke-linecap:butt;stroke-linejoin:miter;stroke-miterlimit:3.86400008;stroke-dasharray:none;stroke-opacity:1"
             id="path616"
             inkscape:connector-curvature="0" /></g><text
           transform="matrix(1,0,0,-1,171.3564,624.3564)"
           style="font-variant:normal;font-weight:normal;font-stretch:condensed;font-size:9px;font-family:'HelveticaNeue Condensed';-inkscape-font-specification:HelveticaNeue-Condensed;writing-mode:lr-tb;fill:#231f20;fill-opacity:1;fill-rule:nonzero;stroke:none"
           id="text618"><tspan
             x="0 5.0040002"
             y="0"
             sodipodi:role="line"
             id="tspan620">NA</tspan></text>
<path
           d="m 131.441,559.888 11.496,0 0,-11.496 -11.496,0 0,11.496 z"
           style="fill:#ffffff;fill-opacity:1;fill-rule:nonzero;stroke:none"
           id="path622"
           inkscape:connector-curvature="0" /><path
           d="m 131.441,559.888 11.496,0 0,-11.496 -11.496,0 0,11.496 z"
           style="fill:none;stroke:#231f20;stroke-width:1;stroke-linecap:butt;stroke-linejoin:miter;stroke-miterlimit:3.86400008;stroke-dasharray:none;stroke-opacity:1"
           id="path624"
           inkscape:connector-curvature="0" /><path
           d="m 209.191,559.888 11.496,0 0,-11.496 -11.496,0 0,11.496 z"
           style="fill:#ffffff;fill-opacity:1;fill-rule:nonzero;stroke:#231f20;stroke-width:1;stroke-linecap:butt;stroke-linejoin:miter;stroke-miterlimit:3.86400008;stroke-dasharray:none;stroke-opacity:1"
           id="path626"
           inkscape:connector-curvature="0" /></g></g><path
       d="m 77.943,458.919 325.734,0 0,213.799 -325.734,0 0,-213.799 z"
       style="fill:none;stroke:#231f20;stroke-width:0.5;stroke-linecap:butt;stroke-linejoin:miter;stroke-miterlimit:4;stroke-dasharray:none;stroke-opacity:1"
       id="path628"
       inkscape:connector-curvature="0" /></g></svg>