<?xml version="1.0" encoding="UTF-8" standalone="no"?>
<!-- Created with Inkscape (http://www.inkscape.org/) -->

<svg
   xmlns:dc="http://purl.org/dc/elements/1.1/"
   xmlns:cc="http://creativecommons.org/ns#"
   xmlns:rdf="http://www.w3.org/1999/02/22-rdf-syntax-ns#"
   xmlns:svg="http://www.w3.org/2000/svg"
   xmlns="http://www.w3.org/2000/svg"
   xmlns:sodipodi="http://sodipodi.sourceforge.net/DTD/sodipodi-0.dtd"
   xmlns:inkscape="http://www.inkscape.org/namespaces/inkscape"
   id="svg2"
   version="1.1"
   inkscape:version="0.91 r13725"
   xml:space="preserve"
   width="408.10501"
   height="228.81375"
   viewBox="0 0 408.10501 228.81375"
   sodipodi:docname="fig_10.svg"><metadata
     id="metadata8"><rdf:RDF><cc:Work
         rdf:about=""><dc:format>image/svg+xml</dc:format><dc:type
           rdf:resource="http://purl.org/dc/dcmitype/StillImage" /><dc:title></dc:title></cc:Work></rdf:RDF></metadata><defs
     id="defs6"><clipPath
       clipPathUnits="userSpaceOnUse"
       id="clipPath16"><path
         d="m 21,21 581.103,0 0,722.835 L 21,743.835 21,21 Z"
         id="path18"
         inkscape:connector-curvature="0" /></clipPath><clipPath
       clipPathUnits="userSpaceOnUse"
       id="clipPath36"><path
         d="m 63.52,695.646 141.732,0 0,2.835 -141.732,0 0,-2.835 z"
         id="path38"
         inkscape:connector-curvature="0" /></clipPath><linearGradient
       x1="0"
       y1="0"
       x2="1"
       y2="0"
       gradientUnits="userSpaceOnUse"
       gradientTransform="matrix(141.73228,0,0,-141.73228,63.519653,695.64584)"
       spreadMethod="pad"
       id="linearGradient44"><stop
         style="stop-opacity:1;stop-color:#231f20"
         offset="0"
         id="stop46" /><stop
         style="stop-opacity:1;stop-color:#ffffff"
         offset="1"
         id="stop48" /></linearGradient><clipPath
       clipPathUnits="userSpaceOnUse"
       id="clipPath56"><path
         d="m 219.425,695.646 325.984,0 0,2.835 -325.984,0 0,-2.835 z"
         id="path58"
         inkscape:connector-curvature="0" /></clipPath><linearGradient
       x1="0"
       y1="0"
       x2="1"
       y2="0"
       gradientUnits="userSpaceOnUse"
       gradientTransform="matrix(325.98425,0,0,-325.98425,219.42517,695.64584)"
       spreadMethod="pad"
       id="linearGradient64"><stop
         style="stop-opacity:1;stop-color:#231f20"
         offset="0"
         id="stop66" /><stop
         style="stop-opacity:1;stop-color:#ffffff"
         offset="1"
         id="stop68" /></linearGradient><clipPath
       clipPathUnits="userSpaceOnUse"
       id="clipPath76"><path
         d="m 21,21 581.102,0 0,722.835 L 21,743.835 21,21 Z"
         id="path78"
         inkscape:connector-curvature="0" /></clipPath><clipPath
       clipPathUnits="userSpaceOnUse"
       id="clipPath182"><path
         d="m 219.425,63.52 325.984,0 0,182.551 -325.984,0 0,-182.551 z"
         id="path184"
         inkscape:connector-curvature="0" /></clipPath><clipPath
       clipPathUnits="userSpaceOnUse"
       id="clipPath260"><path
         d="m 375.821,134.891 20.297,0 0,13.774 -20.297,0 0,-13.774 z"
         id="path262"
         inkscape:connector-curvature="0" /></clipPath><clipPath
       clipPathUnits="userSpaceOnUse"
       id="clipPath324"><path
         d="m 219.425,63.52 325.984,0 0,182.551 -325.984,0 0,-182.551 z"
         id="path326"
         inkscape:connector-curvature="0" /></clipPath><clipPath
       clipPathUnits="userSpaceOnUse"
       id="clipPath336"><path
         d="m 519.945,134.891 20.296,0 0,13.774 -20.296,0 0,-13.774 z"
         id="path338"
         inkscape:connector-curvature="0" /></clipPath><clipPath
       clipPathUnits="userSpaceOnUse"
       id="clipPath400"><path
         d="m 219.425,63.52 325.984,0 0,182.551 -325.984,0 0,-182.551 z"
         id="path402"
         inkscape:connector-curvature="0" /></clipPath><clipPath
       clipPathUnits="userSpaceOnUse"
       id="clipPath608"><path
         d="m 0,0 623.102,0 0,764.835 L 0,764.835 0,0 Z"
         id="path610"
         inkscape:connector-curvature="0" /></clipPath></defs><sodipodi:namedview
     pagecolor="#ffffff"
     bordercolor="#666666"
     borderopacity="1"
     objecttolerance="10"
     gridtolerance="10"
     guidetolerance="10"
     inkscape:pageopacity="0"
     inkscape:pageshadow="2"
     inkscape:window-width="1366"
     inkscape:window-height="711"
     id="namedview4"
     showgrid="false"
     fit-margin-top="0"
     fit-margin-left="0"
     fit-margin-right="0"
     fit-margin-bottom="0"
     inkscape:zoom="0.36634289"
     inkscape:cx="71.032509"
     inkscape:cy="263.25376"
     inkscape:window-x="0"
     inkscape:window-y="27"
     inkscape:window-maximized="1"
     inkscape:current-layer="g10" /><g
     id="g10"
     inkscape:groupmode="layer"
     inkscape:label="Kagan_Cap1"
     transform="matrix(1.25,0,0,-1.25,-273.96875,307.90125)"><g
       id="g166"
       transform="matrix(0.9797668,0,0,-1,382.90942,154.51984)"><g
         id="g168"
         transform="translate(150.2228,36)"><path
           d="M 0,0 0,-46.516 M -147.099,0 l 0,-46.516"
           style="fill:none;stroke:#231f20;stroke-width:1;stroke-linecap:butt;stroke-linejoin:miter;stroke-miterlimit:3.86400008;stroke-dasharray:none;stroke-opacity:1"
           id="path170"
           inkscape:connector-curvature="0" /></g></g><g
       id="g172"
       transform="matrix(0.9797668,0,0,-1,382.90942,154.51984)"><g
         id="g174"
         transform="translate(-161.1943,-10.5164)"><path
           d="M 0,0 311.417,0"
           style="fill:none;stroke:#231f20;stroke-width:2;stroke-linecap:butt;stroke-linejoin:miter;stroke-miterlimit:3.86400008;stroke-dasharray:none;stroke-opacity:1"
           id="path176"
           inkscape:connector-curvature="0" /></g></g><g
       id="g178"><g
         id="g180"
         clip-path="url(#clipPath182)"><g
           id="g186"
           transform="matrix(0.9797668,0,0,-1,382.90942,154.51984)"><g
             id="g188"
             transform="translate(147.2228,-10.5164)"><path
               d="M 0,0 C 0,-1.657 1.343,-3 3,-3 4.657,-3 6,-1.657 6,0 6,1.657 4.657,3 3,3 1.343,3 0,1.657 0,0"
               style="fill:#231f20;fill-opacity:1;fill-rule:nonzero;stroke:none"
               id="path190"
               inkscape:connector-curvature="0" /></g></g><g
           id="g192"
           transform="matrix(0.9797668,0,0,-1,382.90942,154.51984)"><g
             id="g194"
             transform="translate(147.2228,-10.5164)"><path
               d="M 0,0 C 0,-1.657 1.343,-3 3,-3 4.657,-3 6,-1.657 6,0 6,1.657 4.657,3 3,3 1.343,3 0,1.657 0,0 Z"
               style="fill:none;stroke:#231f20;stroke-width:1;stroke-linecap:butt;stroke-linejoin:miter;stroke-miterlimit:3.86400008;stroke-dasharray:none;stroke-opacity:1"
               id="path196"
               inkscape:connector-curvature="0" /></g></g><g
           id="g198"
           transform="matrix(0.9797668,0,0,-1,382.90942,154.51984)"><path
             d="m -113.167,-16.264 11.496,0 0,11.496 -11.496,0 0,-11.496 z"
             style="fill:#ffffff;fill-opacity:1;fill-rule:nonzero;stroke:#231f20;stroke-width:1;stroke-linecap:butt;stroke-linejoin:miter;stroke-miterlimit:3.86400008;stroke-dasharray:none;stroke-opacity:1"
             id="path200"
             inkscape:connector-curvature="0" /></g><text
           transform="matrix(0.97976667,0,0,-1,275.2121,161.8363)"
           style="font-variant:normal;font-weight:normal;font-stretch:condensed;font-size:9px;font-family:'HelveticaNeue Condensed';-inkscape-font-specification:HelveticaNeue-Condensed;writing-mode:lr-tb;fill:#231f20;fill-opacity:1;fill-rule:nonzero;stroke:none"
           id="text202"><tspan
             x="0"
             y="0"
             id="tspan204">D</tspan></text>
<text
           transform="matrix(0.97976667,0,0,-1,296.06643,169.4863)"
           style="font-variant:normal;font-weight:normal;font-stretch:condensed;font-size:9px;font-family:'HelveticaNeue Condensed';-inkscape-font-specification:HelveticaNeue-Condensed;writing-mode:lr-tb;fill:#231f20;fill-opacity:1;fill-rule:nonzero;stroke:none"
           id="text206"><tspan
             x="0 4.671 6.507 9.1709995 13.005 17.172001 19.007999 21.339001 25.334999 27.495001 31.815001"
             y="0"
             sodipodi:role="line"
             id="tspan208">Circuito 01</tspan></text>
<g
           id="g210"
           transform="matrix(0.9797668,0,0,-1,382.90942,154.51984)"><path
             d="m -39.472,-16.264 11.496,0 0,11.496 -11.496,0 0,-11.496 z"
             style="fill:#ffffff;fill-opacity:1;fill-rule:nonzero;stroke:none"
             id="path212"
             inkscape:connector-curvature="0" /></g><g
           id="g214"
           transform="matrix(0.9797668,0,0,-1,382.90942,154.51984)"><path
             d="m -39.472,-16.264 11.496,0 0,11.496 -11.496,0 0,-11.496 z"
             style="fill:none;stroke:#231f20;stroke-width:1;stroke-linecap:butt;stroke-linejoin:miter;stroke-miterlimit:3.86400008;stroke-dasharray:none;stroke-opacity:1"
             id="path216"
             inkscape:connector-curvature="0" /></g><g
           id="g218"
           transform="matrix(0.9797668,0,0,-1,382.90942,154.51984)"><path
             d="m 34.223,-16.264 11.496,0 0,11.496 -11.496,0 0,-11.496 z"
             style="fill:#ffffff;fill-opacity:1;fill-rule:nonzero;stroke:#231f20;stroke-width:1;stroke-linecap:butt;stroke-linejoin:miter;stroke-miterlimit:3.86400008;stroke-dasharray:none;stroke-opacity:1"
             id="path220"
             inkscape:connector-curvature="0" /></g><g
           id="g222"
           transform="matrix(0.9797668,0,0,-1,382.90942,154.51984)"><path
             d="m 107.919,-16.264 11.496,0 0,11.496 -11.496,0 0,-11.496 z"
             style="fill:#ffffff;fill-opacity:1;fill-rule:nonzero;stroke:#231f20;stroke-width:1;stroke-linecap:butt;stroke-linejoin:miter;stroke-miterlimit:3.86400008;stroke-dasharray:none;stroke-opacity:1"
             id="path224"
             inkscape:connector-curvature="0" /></g><g
           id="g226"
           transform="matrix(0.9797668,0,0,-1,382.90942,154.51984)"><g
             id="g228"
             transform="translate(-161.1943,36)"><path
               d="M 0,0 311.417,0"
               style="fill:none;stroke:#231f20;stroke-width:2;stroke-linecap:butt;stroke-linejoin:miter;stroke-miterlimit:3.86400008;stroke-dasharray:none;stroke-opacity:1"
               id="path230"
               inkscape:connector-curvature="0" /></g></g><g
           id="g232"
           transform="matrix(0.9797668,0,0,-1,382.90942,154.51984)"><path
             d="m -113.167,30.252 11.496,0 0,11.496 -11.496,0 0,-11.496 z"
             style="fill:#ffffff;fill-opacity:1;fill-rule:nonzero;stroke:#231f20;stroke-width:1;stroke-linecap:butt;stroke-linejoin:miter;stroke-miterlimit:3.86400008;stroke-dasharray:none;stroke-opacity:1"
             id="path234"
             inkscape:connector-curvature="0" /></g><text
           transform="matrix(0.97976667,0,0,-1,296.0883,122.9702)"
           style="font-variant:normal;font-weight:normal;font-stretch:condensed;font-size:9px;font-family:'HelveticaNeue Condensed';-inkscape-font-specification:HelveticaNeue-Condensed;writing-mode:lr-tb;fill:#231f20;fill-opacity:1;fill-rule:nonzero;stroke:none"
           id="text236"><tspan
             x="0 4.671 6.507 9.1709995 13.005 17.172001 19.007999 21.339001 25.334999 27.495001 31.815001"
             y="0"
             sodipodi:role="line"
             id="tspan238">Circuito 02</tspan></text>
<g
           id="g240"
           transform="matrix(0.9797668,0,0,-1,382.90942,154.51984)"><path
             d="m -39.472,30.252 11.496,0 0,11.496 -11.496,0 0,-11.496 z"
             style="fill:#ffffff;fill-opacity:1;fill-rule:nonzero;stroke:none"
             id="path242"
             inkscape:connector-curvature="0" /></g><g
           id="g244"
           transform="matrix(0.9797668,0,0,-1,382.90942,154.51984)"><path
             d="m -39.472,30.252 11.496,0 0,11.496 -11.496,0 0,-11.496 z"
             style="fill:none;stroke:#231f20;stroke-width:1;stroke-linecap:butt;stroke-linejoin:miter;stroke-miterlimit:3.86400008;stroke-dasharray:none;stroke-opacity:1"
             id="path246"
             inkscape:connector-curvature="0" /></g><g
           id="g248"
           transform="matrix(0.9797668,0,0,-1,382.90942,154.51984)"><path
             d="m 34.223,30.252 11.496,0 0,11.496 -11.496,0 0,-11.496 z"
             style="fill:#ffffff;fill-opacity:1;fill-rule:nonzero;stroke:#231f20;stroke-width:1;stroke-linecap:butt;stroke-linejoin:miter;stroke-miterlimit:3.86400008;stroke-dasharray:none;stroke-opacity:1"
             id="path250"
             inkscape:connector-curvature="0" /></g><g
           id="g252"
           transform="matrix(0.9797668,0,0,-1,382.90942,154.51984)"><path
             d="m 107.919,30.252 11.496,0 0,11.496 -11.496,0 0,-11.496 z"
             style="fill:#ffffff;fill-opacity:1;fill-rule:nonzero;stroke:#231f20;stroke-width:1;stroke-linecap:butt;stroke-linejoin:miter;stroke-miterlimit:3.86400008;stroke-dasharray:none;stroke-opacity:1"
             id="path254"
             inkscape:connector-curvature="0" /></g></g></g><g
       id="g256"><g
         id="g258"
         clip-path="url(#clipPath260)"><g
           id="g264"
           transform="matrix(0.9797668,0,0,-1,382.90942,154.51984)"><path
             d="m -7.232,6.86 20.76,0 0,-1.32 -20.76,0 0,1.32 z"
             style="fill:#ffffff;fill-opacity:1;fill-rule:nonzero;stroke:none"
             id="path266"
             inkscape:connector-curvature="0" /></g><g
           id="g268"
           transform="matrix(0.9797668,0,0,-1,382.90942,154.51984)"><path
             d="m -7.232,8.12 20.76,0 0,-1.32 -20.76,0 0,1.32 z"
             style="fill:#ffffff;fill-opacity:1;fill-rule:nonzero;stroke:none"
             id="path270"
             inkscape:connector-curvature="0" /></g><g
           id="g272"
           transform="matrix(0.9797668,0,0,-1,382.90942,154.51984)"><path
             d="m -7.232,8.71 20.76,0 0,-1.08 -20.76,0 0,1.08 z"
             style="fill:#ffffff;fill-opacity:1;fill-rule:nonzero;stroke:none"
             id="path274"
             inkscape:connector-curvature="0" /></g><g
           id="g276"
           transform="matrix(0.9797668,0,0,-1,382.90942,154.51984)"><path
             d="m -7.232,9.8 20.76,0 0,-1.08 -20.76,0 0,1.08 z"
             style="fill:#d9d8d8;fill-opacity:1;fill-rule:nonzero;stroke:none"
             id="path278"
             inkscape:connector-curvature="0" /></g><g
           id="g280"
           transform="matrix(0.9797668,0,0,-1,382.90942,154.51984)"><path
             d="m -7.232,10.89 20.76,0 0,-1.08 -20.76,0 0,1.08 z"
             style="fill:#b2b1b1;fill-opacity:1;fill-rule:nonzero;stroke:none"
             id="path282"
             inkscape:connector-curvature="0" /></g><g
           id="g284"
           transform="matrix(0.9797668,0,0,-1,382.90942,154.51984)"><path
             d="m -7.232,11.981 20.76,0 0,-1.08 -20.76,0 0,1.08 z"
             style="fill:#8c898a;fill-opacity:1;fill-rule:nonzero;stroke:none"
             id="path286"
             inkscape:connector-curvature="0" /></g><g
           id="g288"
           transform="matrix(0.9797668,0,0,-1,382.90942,154.51984)"><path
             d="m -7.232,13.071 20.76,0 0,-1.08 -20.76,0 0,1.08 z"
             style="fill:#656263;fill-opacity:1;fill-rule:nonzero;stroke:none"
             id="path290"
             inkscape:connector-curvature="0" /></g><g
           id="g292"
           transform="matrix(0.9797668,0,0,-1,382.90942,154.51984)"><path
             d="m -7.232,13.522 20.76,0 0,-0.96 -20.76,0 0,0.96 z"
             style="fill:#656263;fill-opacity:1;fill-rule:nonzero;stroke:none"
             id="path294"
             inkscape:connector-curvature="0" /></g><g
           id="g296"
           transform="matrix(0.9797668,0,0,-1,382.90942,154.51984)"><path
             d="m -7.232,14.474 20.76,0 0,-0.96 -20.76,0 0,0.96 z"
             style="fill:#8c898a;fill-opacity:1;fill-rule:nonzero;stroke:none"
             id="path298"
             inkscape:connector-curvature="0" /></g><g
           id="g300"
           transform="matrix(0.9797668,0,0,-1,382.90942,154.51984)"><path
             d="m -7.232,15.426 20.76,0 0,-0.96 -20.76,0 0,0.96 z"
             style="fill:#b2b1b1;fill-opacity:1;fill-rule:nonzero;stroke:none"
             id="path302"
             inkscape:connector-curvature="0" /></g><g
           id="g304"
           transform="matrix(0.9797668,0,0,-1,382.90942,154.51984)"><path
             d="m -7.232,16.378 20.76,0 0,-0.96 -20.76,0 0,0.96 z"
             style="fill:#d9d8d8;fill-opacity:1;fill-rule:nonzero;stroke:none"
             id="path306"
             inkscape:connector-curvature="0" /></g><g
           id="g308"
           transform="matrix(0.9797668,0,0,-1,382.90942,154.51984)"><path
             d="m -7.232,17.33 20.76,0 0,-0.96 -20.76,0 0,0.96 z"
             style="fill:#ffffff;fill-opacity:1;fill-rule:nonzero;stroke:none"
             id="path310"
             inkscape:connector-curvature="0" /></g><g
           id="g312"
           transform="matrix(0.9797668,0,0,-1,382.90942,154.51984)"><path
             d="m -7.232,18.355 20.76,0 0,-1.56 -20.76,0 0,1.56 z"
             style="fill:#ffffff;fill-opacity:1;fill-rule:nonzero;stroke:none"
             id="path314"
             inkscape:connector-curvature="0" /></g><g
           id="g316"
           transform="matrix(0.9797668,0,0,-1,382.90942,154.51984)"><path
             d="m -7.232,19.88 20.76,0 0,-1.56 -20.76,0 0,1.56 z"
             style="fill:#ffffff;fill-opacity:1;fill-rule:nonzero;stroke:none"
             id="path318"
             inkscape:connector-curvature="0" /></g></g></g><g
       id="g320"><g
         id="g322"
         clip-path="url(#clipPath324)"><g
           id="g328"
           transform="matrix(0.9797668,0,0,-1,382.90942,154.51984)"><path
             d="m -7.234,5.854 20.715,0 0,13.775 -20.715,0 0,-13.775 z"
             style="fill:none;stroke:#231f20;stroke-width:1;stroke-linecap:butt;stroke-linejoin:miter;stroke-miterlimit:3.86400008;stroke-dasharray:none;stroke-opacity:1"
             id="path330"
             inkscape:connector-curvature="0" /></g></g></g><g
       id="g332"><g
         id="g334"
         clip-path="url(#clipPath336)"><g
           id="g340"
           transform="matrix(0.9797668,0,0,-1,382.90942,154.51984)"><path
             d="m 139.868,6.86 20.76,0 0,-1.32 -20.76,0 0,1.32 z"
             style="fill:#ffffff;fill-opacity:1;fill-rule:nonzero;stroke:none"
             id="path342"
             inkscape:connector-curvature="0" /></g><g
           id="g344"
           transform="matrix(0.9797668,0,0,-1,382.90942,154.51984)"><path
             d="m 139.868,8.12 20.76,0 0,-1.32 -20.76,0 0,1.32 z"
             style="fill:#ffffff;fill-opacity:1;fill-rule:nonzero;stroke:none"
             id="path346"
             inkscape:connector-curvature="0" /></g><g
           id="g348"
           transform="matrix(0.9797668,0,0,-1,382.90942,154.51984)"><path
             d="m 139.868,8.71 20.76,0 0,-1.08 -20.76,0 0,1.08 z"
             style="fill:#ffffff;fill-opacity:1;fill-rule:nonzero;stroke:none"
             id="path350"
             inkscape:connector-curvature="0" /></g><g
           id="g352"
           transform="matrix(0.9797668,0,0,-1,382.90942,154.51984)"><path
             d="m 139.868,9.8 20.76,0 0,-1.08 -20.76,0 0,1.08 z"
             style="fill:#d9d8d8;fill-opacity:1;fill-rule:nonzero;stroke:none"
             id="path354"
             inkscape:connector-curvature="0" /></g><g
           id="g356"
           transform="matrix(0.9797668,0,0,-1,382.90942,154.51984)"><path
             d="m 139.868,10.89 20.76,0 0,-1.08 -20.76,0 0,1.08 z"
             style="fill:#b2b1b1;fill-opacity:1;fill-rule:nonzero;stroke:none"
             id="path358"
             inkscape:connector-curvature="0" /></g><g
           id="g360"
           transform="matrix(0.9797668,0,0,-1,382.90942,154.51984)"><path
             d="m 139.868,11.981 20.76,0 0,-1.08 -20.76,0 0,1.08 z"
             style="fill:#8c898a;fill-opacity:1;fill-rule:nonzero;stroke:none"
             id="path362"
             inkscape:connector-curvature="0" /></g><g
           id="g364"
           transform="matrix(0.9797668,0,0,-1,382.90942,154.51984)"><path
             d="m 139.868,13.071 20.76,0 0,-1.08 -20.76,0 0,1.08 z"
             style="fill:#656263;fill-opacity:1;fill-rule:nonzero;stroke:none"
             id="path366"
             inkscape:connector-curvature="0" /></g><g
           id="g368"
           transform="matrix(0.9797668,0,0,-1,382.90942,154.51984)"><path
             d="m 139.868,13.522 20.76,0 0,-0.96 -20.76,0 0,0.96 z"
             style="fill:#656263;fill-opacity:1;fill-rule:nonzero;stroke:none"
             id="path370"
             inkscape:connector-curvature="0" /></g><g
           id="g372"
           transform="matrix(0.9797668,0,0,-1,382.90942,154.51984)"><path
             d="m 139.868,14.474 20.76,0 0,-0.96 -20.76,0 0,0.96 z"
             style="fill:#8c898a;fill-opacity:1;fill-rule:nonzero;stroke:none"
             id="path374"
             inkscape:connector-curvature="0" /></g><g
           id="g376"
           transform="matrix(0.9797668,0,0,-1,382.90942,154.51984)"><path
             d="m 139.868,15.426 20.76,0 0,-0.96 -20.76,0 0,0.96 z"
             style="fill:#b2b1b1;fill-opacity:1;fill-rule:nonzero;stroke:none"
             id="path378"
             inkscape:connector-curvature="0" /></g><g
           id="g380"
           transform="matrix(0.9797668,0,0,-1,382.90942,154.51984)"><path
             d="m 139.868,16.378 20.76,0 0,-0.96 -20.76,0 0,0.96 z"
             style="fill:#d9d8d8;fill-opacity:1;fill-rule:nonzero;stroke:none"
             id="path382"
             inkscape:connector-curvature="0" /></g><g
           id="g384"
           transform="matrix(0.9797668,0,0,-1,382.90942,154.51984)"><path
             d="m 139.868,17.33 20.76,0 0,-0.96 -20.76,0 0,0.96 z"
             style="fill:#ffffff;fill-opacity:1;fill-rule:nonzero;stroke:none"
             id="path386"
             inkscape:connector-curvature="0" /></g><g
           id="g388"
           transform="matrix(0.9797668,0,0,-1,382.90942,154.51984)"><path
             d="m 139.868,18.355 20.76,0 0,-1.56 -20.76,0 0,1.56 z"
             style="fill:#ffffff;fill-opacity:1;fill-rule:nonzero;stroke:none"
             id="path390"
             inkscape:connector-curvature="0" /></g><g
           id="g392"
           transform="matrix(0.9797668,0,0,-1,382.90942,154.51984)"><path
             d="m 139.868,19.88 20.76,0 0,-1.56 -20.76,0 0,1.56 z"
             style="fill:#ffffff;fill-opacity:1;fill-rule:nonzero;stroke:none"
             id="path394"
             inkscape:connector-curvature="0" /></g></g></g><g
       id="g396"><g
         id="g398"
         clip-path="url(#clipPath400)"><g
           id="g404"
           transform="matrix(0.9797668,0,0,-1,382.90942,154.51984)"><path
             d="m 139.865,5.854 20.715,0 0,13.775 -20.715,0 0,-13.775 z"
             style="fill:none;stroke:#231f20;stroke-width:1;stroke-linecap:butt;stroke-linejoin:miter;stroke-miterlimit:3.86400008;stroke-dasharray:none;stroke-opacity:1"
             id="path406"
             inkscape:connector-curvature="0" /></g><g
           id="g408"
           transform="matrix(0.9797668,0,0,-1,382.90942,154.51984)"><g
             id="g410"
             transform="translate(147.2228,36)"><path
               d="M 0,0 C 0,-1.657 1.343,-3 3,-3 4.657,-3 6,-1.657 6,0 6,1.657 4.657,3 3,3 1.343,3 0,1.657 0,0"
               style="fill:#231f20;fill-opacity:1;fill-rule:nonzero;stroke:none"
               id="path412"
               inkscape:connector-curvature="0" /></g></g><g
           id="g414"
           transform="matrix(0.9797668,0,0,-1,382.90942,154.51984)"><g
             id="g416"
             transform="translate(147.2228,36)"><path
               d="M 0,0 C 0,-1.657 1.343,-3 3,-3 4.657,-3 6,-1.657 6,0 6,1.657 4.657,3 3,3 1.343,3 0,1.657 0,0 Z"
               style="fill:none;stroke:#231f20;stroke-width:1;stroke-linecap:butt;stroke-linejoin:miter;stroke-miterlimit:3.86400008;stroke-dasharray:none;stroke-opacity:1"
               id="path418"
               inkscape:connector-curvature="0" /></g></g><g
           id="g420"
           transform="matrix(0.9797668,0,0,-1,382.90942,154.51984)"><g
             id="g422"
             transform="translate(73.8189,36)"><path
               d="M 0,0 C 0,-1.657 1.343,-3 3,-3 4.657,-3 6,-1.657 6,0 6,1.657 4.657,3 3,3 1.343,3 0,1.657 0,0"
               style="fill:#231f20;fill-opacity:1;fill-rule:nonzero;stroke:none"
               id="path424"
               inkscape:connector-curvature="0" /></g></g><g
           id="g426"
           transform="matrix(0.9797668,0,0,-1,382.90942,154.51984)"><g
             id="g428"
             transform="translate(73.8189,36)"><path
               d="M 0,0 C 0,-1.657 1.343,-3 3,-3 4.657,-3 6,-1.657 6,0 6,1.657 4.657,3 3,3 1.343,3 0,1.657 0,0 Z"
               style="fill:none;stroke:#231f20;stroke-width:1;stroke-linecap:butt;stroke-linejoin:miter;stroke-miterlimit:3.86400008;stroke-dasharray:none;stroke-opacity:1"
               id="path430"
               inkscape:connector-curvature="0" /></g></g><g
           id="g432"
           transform="matrix(0.9797668,0,0,-1,382.90942,154.51984)"><g
             id="g434"
             transform="translate(0.1234,36)"><path
               d="M 0,0 C 0,-1.657 1.343,-3 3,-3 4.657,-3 6,-1.657 6,0 6,1.657 4.657,3 3,3 1.343,3 0,1.657 0,0"
               style="fill:#231f20;fill-opacity:1;fill-rule:nonzero;stroke:none"
               id="path436"
               inkscape:connector-curvature="0" /></g></g><g
           id="g438"
           transform="matrix(0.9797668,0,0,-1,382.90942,154.51984)"><g
             id="g440"
             transform="translate(0.1234,36)"><path
               d="M 0,0 C 0,-1.657 1.343,-3 3,-3 4.657,-3 6,-1.657 6,0 6,1.657 4.657,3 3,3 1.343,3 0,1.657 0,0 Z"
               style="fill:none;stroke:#231f20;stroke-width:1;stroke-linecap:butt;stroke-linejoin:miter;stroke-miterlimit:3.86400008;stroke-dasharray:none;stroke-opacity:1"
               id="path442"
               inkscape:connector-curvature="0" /></g></g><g
           id="g444"
           transform="matrix(0.9797668,0,0,-1,382.90942,154.51984)"><g
             id="g446"
             transform="translate(-73.5718,36)"><path
               d="M 0,0 C 0,-1.657 1.343,-3 3,-3 4.657,-3 6,-1.657 6,0 6,1.657 4.657,3 3,3 1.343,3 0,1.657 0,0"
               style="fill:#231f20;fill-opacity:1;fill-rule:nonzero;stroke:none"
               id="path448"
               inkscape:connector-curvature="0" /></g></g><g
           id="g450"
           transform="matrix(0.9797668,0,0,-1,382.90942,154.51984)"><g
             id="g452"
             transform="translate(-73.5718,36)"><path
               d="M 0,0 C 0,-1.657 1.343,-3 3,-3 4.657,-3 6,-1.657 6,0 6,1.657 4.657,3 3,3 1.343,3 0,1.657 0,0 Z"
               style="fill:none;stroke:#231f20;stroke-width:1;stroke-linecap:butt;stroke-linejoin:miter;stroke-miterlimit:3.86400008;stroke-dasharray:none;stroke-opacity:1"
               id="path454"
               inkscape:connector-curvature="0" /></g></g><g
           id="g456"
           transform="matrix(0.9797668,0,0,-1,382.90942,154.51984)"><g
             id="g458"
             transform="translate(73.8189,-10.5164)"><path
               d="M 0,0 C 0,-1.657 1.343,-3 3,-3 4.657,-3 6,-1.657 6,0 6,1.657 4.657,3 3,3 1.343,3 0,1.657 0,0"
               style="fill:#231f20;fill-opacity:1;fill-rule:nonzero;stroke:none"
               id="path460"
               inkscape:connector-curvature="0" /></g></g><g
           id="g462"
           transform="matrix(0.9797668,0,0,-1,382.90942,154.51984)"><g
             id="g464"
             transform="translate(73.8189,-10.5164)"><path
               d="M 0,0 C 0,-1.657 1.343,-3 3,-3 4.657,-3 6,-1.657 6,0 6,1.657 4.657,3 3,3 1.343,3 0,1.657 0,0 Z"
               style="fill:none;stroke:#231f20;stroke-width:1;stroke-linecap:butt;stroke-linejoin:miter;stroke-miterlimit:3.86400008;stroke-dasharray:none;stroke-opacity:1"
               id="path466"
               inkscape:connector-curvature="0" /></g></g><g
           id="g468"
           transform="matrix(0.9797668,0,0,-1,382.90942,154.51984)"><g
             id="g470"
             transform="translate(0.1234,-10.5164)"><path
               d="M 0,0 C 0,-1.657 1.343,-3 3,-3 4.657,-3 6,-1.657 6,0 6,1.657 4.657,3 3,3 1.343,3 0,1.657 0,0"
               style="fill:#231f20;fill-opacity:1;fill-rule:nonzero;stroke:none"
               id="path472"
               inkscape:connector-curvature="0" /></g></g><g
           id="g474"
           transform="matrix(0.9797668,0,0,-1,382.90942,154.51984)"><g
             id="g476"
             transform="translate(0.1234,-10.5164)"><path
               d="M 0,0 C 0,-1.657 1.343,-3 3,-3 4.657,-3 6,-1.657 6,0 6,1.657 4.657,3 3,3 1.343,3 0,1.657 0,0 Z"
               style="fill:none;stroke:#231f20;stroke-width:1;stroke-linecap:butt;stroke-linejoin:miter;stroke-miterlimit:3.86400008;stroke-dasharray:none;stroke-opacity:1"
               id="path478"
               inkscape:connector-curvature="0" /></g></g><g
           id="g480"
           transform="matrix(0.9797668,0,0,-1,382.90942,154.51984)"><g
             id="g482"
             transform="translate(76.8189,36)"><path
               d="M 0,0 0,49.854"
               style="fill:none;stroke:#231f20;stroke-width:1;stroke-linecap:butt;stroke-linejoin:miter;stroke-miterlimit:3.86400008;stroke-dasharray:none;stroke-opacity:1"
               id="path484"
               inkscape:connector-curvature="0" /></g></g><text
           transform="matrix(0.97977143,0,0,-1,454.6161,99.1907)"
           style="font-variant:normal;font-weight:bold;font-stretch:condensed;font-size:14px;font-family:'HelveticaNeue Condensed';-inkscape-font-specification:HelveticaNeue-BoldCond;writing-mode:lr-tb;fill:#231f20;fill-opacity:1;fill-rule:nonzero;stroke:none"
           id="text486"><tspan
             x="0"
             y="0"
             id="tspan488">S</tspan></text>
<g
           id="g490"
           transform="matrix(0.9797668,0,0,-1,382.90942,154.51984)"><g
             id="g492"
             transform="translate(-70.5718,36)"><path
               d="M 0,0 0,49.854"
               style="fill:none;stroke:#231f20;stroke-width:1;stroke-linecap:butt;stroke-linejoin:miter;stroke-miterlimit:3.86400008;stroke-dasharray:none;stroke-opacity:1"
               id="path494"
               inkscape:connector-curvature="0" /></g></g><text
           transform="matrix(0.97977143,0,0,-1,310.2072,99.1907)"
           style="font-variant:normal;font-weight:bold;font-stretch:condensed;font-size:14px;font-family:'HelveticaNeue Condensed';-inkscape-font-specification:HelveticaNeue-BoldCond;writing-mode:lr-tb;fill:#231f20;fill-opacity:1;fill-rule:nonzero;stroke:none"
           id="text496"><tspan
             x="0"
             y="0"
             id="tspan498">S</tspan></text>
<g
           id="g500"
           transform="matrix(0.9797668,0,0,-1,382.90942,154.51984)"><g
             id="g502"
             transform="translate(-70.5718,68.3709)"><path
               d="m 0,0 30.861,0 m 42.834,-78.887 0,-60.08"
               style="fill:none;stroke:#231f20;stroke-width:1;stroke-linecap:butt;stroke-linejoin:miter;stroke-miterlimit:3.86400008;stroke-dasharray:none;stroke-opacity:1"
               id="path504"
               inkscape:connector-curvature="0" /></g></g><text
           transform="matrix(0.97977143,0,0,-1,382.4117,176.9655)"
           style="font-variant:normal;font-weight:bold;font-stretch:condensed;font-size:14px;font-family:'HelveticaNeue Condensed';-inkscape-font-specification:HelveticaNeue-BoldCond;writing-mode:lr-tb;fill:#231f20;fill-opacity:1;fill-rule:nonzero;stroke:none"
           id="text506"><tspan
             x="0"
             y="0"
             id="tspan508">S</tspan></text>
<g
           id="g510"
           transform="matrix(0.9797668,0,0,-1,382.90942,154.51984)"><g
             id="g512"
             transform="translate(76.8189,-13.5164)"><path
               d="M 0,0 0,-72.709"
               style="fill:none;stroke:#231f20;stroke-width:1;stroke-linecap:butt;stroke-linejoin:miter;stroke-miterlimit:3.86400008;stroke-dasharray:none;stroke-opacity:1"
               id="path514"
               inkscape:connector-curvature="0" /></g></g><text
           transform="matrix(0.97977143,0,0,-1,454.6161,176.9655)"
           style="font-variant:normal;font-weight:bold;font-stretch:condensed;font-size:14px;font-family:'HelveticaNeue Condensed';-inkscape-font-specification:HelveticaNeue-BoldCond;writing-mode:lr-tb;fill:#231f20;fill-opacity:1;fill-rule:nonzero;stroke:none"
           id="text516"><tspan
             x="0"
             y="0"
             id="tspan518">S</tspan></text>
<g
           id="g520"
           transform="matrix(0.9797668,0,0,-1,382.90942,154.51984)"><g
             id="g522"
             transform="translate(3.1234,-57.4041)"><path
               d="m 0,0 33.616,0 m 40.079,-11.338 35.471,0"
               style="fill:none;stroke:#231f20;stroke-width:1;stroke-linecap:butt;stroke-linejoin:miter;stroke-miterlimit:3.86400008;stroke-dasharray:none;stroke-opacity:1"
               id="path524"
               inkscape:connector-curvature="0" /></g></g><g
           id="g526"
           transform="matrix(0.9797668,0,0,-1,382.90942,154.51984)"><path
             d="m -161.194,-26.146 40.901,0 0,77.775 -40.901,0 0,-77.775 z"
             style="fill:#ffffff;fill-opacity:1;fill-rule:nonzero;stroke:#231f20;stroke-width:1;stroke-linecap:butt;stroke-linejoin:miter;stroke-miterlimit:3.86400008;stroke-dasharray:none;stroke-opacity:1"
             id="path528"
             inkscape:connector-curvature="0" /></g><text
           transform="matrix(0.97977143,0,0,-1,238.1558,138.0782)"
           style="font-variant:normal;font-weight:bold;font-stretch:condensed;font-size:14px;font-family:'HelveticaNeue Condensed';-inkscape-font-specification:HelveticaNeue-BoldCond;writing-mode:lr-tb;fill:#231f20;fill-opacity:1;fill-rule:nonzero;stroke:none"
           id="text530"><tspan
             x="0 7.2659998"
             y="0"
             sodipodi:role="line"
             id="tspan532">SE</tspan></text>
<text
           transform="matrix(0.97976667,0,0,-1,345.4594,161.8363)"
           style="font-variant:normal;font-weight:normal;font-stretch:condensed;font-size:9px;font-family:'HelveticaNeue Condensed';-inkscape-font-specification:HelveticaNeue-Condensed;writing-mode:lr-tb;fill:#231f20;fill-opacity:1;fill-rule:nonzero;stroke:none"
           id="text534"><tspan
             x="0 5.0040002"
             y="0"
             sodipodi:role="line"
             id="tspan536">NF</tspan><tspan
             x="36.594002 41.598"
             y="23.256001"
             sodipodi:role="line"
             id="tspan538">NA</tspan></text>
<g
           id="g540"
           transform="matrix(0.9797668,0,0,-1,382.90942,154.51984)"><g
             id="g542"
             transform="translate(-1.1063,15.9417)"><path
               d="m 0,0 0.792,0 0,-5.202 0.018,0 L 2.871,0 3.96,0 l 0,-6.426 -0.792,0 0,5.364 -0.018,0 L 1.026,-6.426 0,-6.426 0,0 Z"
               style="fill:none;stroke:#ffffff;stroke-width:1;stroke-linecap:butt;stroke-linejoin:miter;stroke-miterlimit:3.86400008;stroke-dasharray:none;stroke-opacity:1"
               id="path544"
               inkscape:connector-curvature="0" /></g></g><g
           id="g546"
           transform="matrix(0.9797668,0,0,-1,382.90942,154.51984)"><g
             id="g548"
             transform="translate(3.3037,15.9417)"><path
               d="m 0,0 0.828,0 0.477,-1.764 2.052,0 L 3.816,0 4.644,0 2.916,-6.426 1.854,-6.426 0,0 Z m 2.358,-5.517 0.018,0 0.819,3.105 -1.728,0 0.891,-3.105 z"
               style="fill:none;stroke:#ffffff;stroke-width:1;stroke-linecap:butt;stroke-linejoin:miter;stroke-miterlimit:3.86400008;stroke-dasharray:none;stroke-opacity:1"
               id="path550"
               inkscape:connector-curvature="0" /></g></g><text
           transform="matrix(0.97976667,0,0,-1,275.2121,115.3199)"
           style="font-variant:normal;font-weight:normal;font-stretch:condensed;font-size:9px;font-family:'HelveticaNeue Condensed';-inkscape-font-specification:HelveticaNeue-Condensed;writing-mode:lr-tb;fill:#231f20;fill-opacity:1;fill-rule:nonzero;stroke:none"
           id="text552"><tspan
             x="0 71.694 76.697998 145.386 150.39"
             y="0"
             sodipodi:role="line"
             id="tspan554">DNFNF</tspan><tspan
             x="145.386 150.39 219.078 224.082"
             y="-46.512001"
             sodipodi:role="line"
             id="tspan556">NFNF</tspan><tspan
             x="219.078 224.082"
             y="0"
             sodipodi:role="line"
             id="tspan558">NF</tspan><tspan
             x="255.384 260.388"
             y="-23.256001"
             sodipodi:role="line"
             id="tspan560">NA</tspan></text>
<g
           id="g562"
           transform="matrix(0.9797668,0,0,-1,382.90942,154.51984)"><g
             id="g564"
             transform="translate(145.9931,15.9417)"><path
               d="m 0,0 0.792,0 0,-5.202 0.018,0 L 2.871,0 3.96,0 l 0,-6.426 -0.792,0 0,5.364 -0.018,0 L 1.026,-6.426 0,-6.426 0,0 Z"
               style="fill:none;stroke:#ffffff;stroke-width:1;stroke-linecap:butt;stroke-linejoin:miter;stroke-miterlimit:3.86400008;stroke-dasharray:none;stroke-opacity:1"
               id="path566"
               inkscape:connector-curvature="0" /></g></g><g
           id="g568"
           transform="matrix(0.9797668,0,0,-1,382.90942,154.51984)"><g
             id="g570"
             transform="translate(150.4031,15.9417)"><path
               d="m 0,0 0.828,0 0.477,-1.764 2.052,0 L 3.816,0 4.644,0 2.916,-6.426 1.854,-6.426 0,0 Z m 2.358,-5.517 0.018,0 0.819,3.105 -1.728,0 0.891,-3.105 z"
               style="fill:none;stroke:#ffffff;stroke-width:1;stroke-linecap:butt;stroke-linejoin:miter;stroke-miterlimit:3.86400008;stroke-dasharray:none;stroke-opacity:1"
               id="path572"
               inkscape:connector-curvature="0" /></g></g><text
           transform="matrix(0.97976667,0,0,-1,381.3141,138.5781)"
           style="font-variant:normal;font-weight:normal;font-stretch:condensed;font-size:9px;font-family:'HelveticaNeue Condensed';-inkscape-font-specification:HelveticaNeue-Condensed;writing-mode:lr-tb;fill:#231f20;fill-opacity:1;fill-rule:nonzero;stroke:none"
           id="text574"><tspan
             x="0 5.0040002 147.09599 152.10001"
             y="0"
             sodipodi:role="line"
             id="tspan576">NANA</tspan></text>
<text
           transform="matrix(0.97976667,0,0,-1,339.34971,173.4621)"
           style="font-variant:normal;font-weight:normal;font-stretch:condensed;font-size:9px;font-family:'HelveticaNeue Condensed';-inkscape-font-specification:HelveticaNeue-Condensed;writing-mode:lr-tb;fill:#231f20;fill-opacity:1;fill-rule:nonzero;stroke:none"
           id="text578"><tspan
             x="0 4.671 8.8380003"
             y="0"
             sodipodi:role="line"
             id="tspan580">Ch.</tspan></text>
<text
           transform="matrix(0.97976667,0,0,-1,351.91522,173.4621)"
           style="font-variant:normal;font-weight:normal;font-stretch:condensed;font-size:9px;font-family:'HelveticaNeue Condensed';-inkscape-font-specification:HelveticaNeue-Condensed;writing-mode:lr-tb;fill:#231f20;fill-opacity:1;fill-rule:nonzero;stroke:none"
           id="text582"><tspan
             x="0 4.3200002"
             y="0"
             sodipodi:role="line"
             id="tspan584">01</tspan></text>
<text
           transform="matrix(0.97976667,0,0,-1,411.55068,173.4621)"
           style="font-variant:normal;font-weight:normal;font-stretch:condensed;font-size:9px;font-family:'HelveticaNeue Condensed';-inkscape-font-specification:HelveticaNeue-Condensed;writing-mode:lr-tb;fill:#231f20;fill-opacity:1;fill-rule:nonzero;stroke:none"
           id="text586"><tspan
             x="0 4.671 8.8380003"
             y="0"
             sodipodi:role="line"
             id="tspan588">Ch.</tspan></text>
<text
           transform="matrix(0.97976667,0,0,-1,424.11619,173.4621)"
           style="font-variant:normal;font-weight:normal;font-stretch:condensed;font-size:9px;font-family:'HelveticaNeue Condensed';-inkscape-font-specification:HelveticaNeue-Condensed;writing-mode:lr-tb;fill:#231f20;fill-opacity:1;fill-rule:nonzero;stroke:none"
           id="text590"><tspan
             x="0 4.3200002"
             y="0"
             sodipodi:role="line"
             id="tspan592">02</tspan></text>
<text
           transform="matrix(0.97976667,0,0,-1,497.50757,138.5781)"
           style="font-variant:normal;font-weight:normal;font-stretch:condensed;font-size:9px;font-family:'HelveticaNeue Condensed';-inkscape-font-specification:HelveticaNeue-Condensed;writing-mode:lr-tb;fill:#231f20;fill-opacity:1;fill-rule:nonzero;stroke:none"
           id="text594"><tspan
             x="0 4.671 8.8380003"
             y="0"
             sodipodi:role="line"
             id="tspan596">Ch.</tspan></text>
<text
           transform="matrix(0.97976667,0,0,-1,510.07308,138.5781)"
           style="font-variant:normal;font-weight:normal;font-stretch:condensed;font-size:9px;font-family:'HelveticaNeue Condensed';-inkscape-font-specification:HelveticaNeue-Condensed;writing-mode:lr-tb;fill:#231f20;fill-opacity:1;fill-rule:nonzero;stroke:none"
           id="text598"><tspan
             x="0 4.3200002"
             y="0"
             sodipodi:role="line"
             id="tspan600">03</tspan></text>
</g></g><path
       d="m 219.425,63.52 325.984,0 0,182.551 -325.984,0 0,-182.551 z"
       style="fill:none;stroke:#231f20;stroke-width:0.5;stroke-linecap:butt;stroke-linejoin:miter;stroke-miterlimit:4;stroke-dasharray:none;stroke-opacity:1"
       id="path602"
       inkscape:connector-curvature="0" /></g></svg>